<svg width="32" height="32" viewBox="0 0 32 32" fill="none" xmlns="http://www.w3.org/2000/svg">
<g clip-path="url(#clip0_79_775)">
<path d="M22.666 10.6666H9.33268V9.33328C9.33227 7.85515 9.82311 6.41879 10.728 5.25004C11.633 4.08129 12.9006 3.24642 14.3318 2.87669C15.7629 2.50696 17.2764 2.62333 18.6342 3.20752C19.9919 3.79171 21.1171 4.81058 21.8327 6.10394C21.9177 6.25706 22.032 6.39194 22.1692 6.50088C22.3063 6.60981 22.4635 6.69067 22.6319 6.73883C22.8003 6.78699 22.9765 6.80152 23.1505 6.78158C23.3245 6.76164 23.4929 6.70762 23.646 6.62261C23.7991 6.5376 23.934 6.42326 24.0429 6.28613C24.1519 6.14899 24.2327 5.99175 24.2809 5.82336C24.3291 5.65498 24.3436 5.47876 24.3237 5.30476C24.3037 5.13076 24.2497 4.9624 24.1647 4.80928C23.1624 2.99903 21.587 1.57317 19.6861 0.755827C17.7851 -0.0615141 15.6665 -0.223991 13.6632 0.293936C11.6599 0.811864 9.88544 1.98083 8.61885 3.61708C7.35226 5.25333 6.66533 7.26408 6.66602 9.33328V11.2319C5.4785 11.7502 4.46774 12.6033 3.75735 13.6869C3.04696 14.7705 2.66772 16.0376 2.66602 17.3333V25.3333C2.66813 27.1007 3.37119 28.7952 4.62098 30.045C5.87076 31.2948 7.56522 31.9978 9.33268 31.9999H22.666C24.4335 31.9978 26.1279 31.2948 27.3777 30.045C28.6275 28.7952 29.3306 27.1007 29.3327 25.3333V17.3333C29.3306 15.5658 28.6275 13.8714 27.3777 12.6216C26.1279 11.3718 24.4335 10.6687 22.666 10.6666ZM26.666 25.3333C26.666 26.3941 26.2446 27.4116 25.4944 28.1617C24.7443 28.9118 23.7269 29.3333 22.666 29.3333H9.33268C8.27182 29.3333 7.2544 28.9118 6.50426 28.1617C5.75411 27.4116 5.33268 26.3941 5.33268 25.3333V17.3333C5.33268 16.2724 5.75411 15.255 6.50426 14.5048C7.2544 13.7547 8.27182 13.3333 9.33268 13.3333H22.666C23.7269 13.3333 24.7443 13.7547 25.4944 14.5048C26.2446 15.255 26.666 16.2724 26.666 17.3333V25.3333Z" fill="white"/>
<path d="M15.9993 18.6666C15.6457 18.6666 15.3066 18.8071 15.0565 19.0572C14.8065 19.3072 14.666 19.6463 14.666 20V22.6666C14.666 23.0202 14.8065 23.3594 15.0565 23.6094C15.3066 23.8595 15.6457 24 15.9993 24C16.353 24 16.6921 23.8595 16.9422 23.6094C17.1922 23.3594 17.3327 23.0202 17.3327 22.6666V20C17.3327 19.6463 17.1922 19.3072 16.9422 19.0572C16.6921 18.8071 16.353 18.6666 15.9993 18.6666Z" fill="white"/>
</g>
<defs>
<clipPath id="clip0_79_775">
<rect width="32" height="32" fill="white"/>
</clipPath>
</defs>
</svg>
