<svg width="32" height="32" viewBox="0 0 32 32" fill="none" xmlns="http://www.w3.org/2000/svg">
<g clip-path="url(#clip0_79_782)">
<path d="M26.6668 10.6667C29.6081 10.6667 32.0001 8.27467 32.0001 5.33333C32.0001 2.392 29.6081 1.36877e-06 26.6668 1.36877e-06C23.7255 1.36877e-06 21.3335 2.392 21.3335 5.33333C21.3335 8.27467 23.7255 10.6667 26.6668 10.6667ZM26.6668 2.66667C28.1375 2.66667 29.3335 3.86267 29.3335 5.33333C29.3335 6.804 28.1375 8 26.6668 8C25.1961 8 24.0001 6.804 24.0001 5.33333C24.0001 3.86267 25.1961 2.66667 26.6668 2.66667ZM29.1575 13.7347C29.0744 13.3917 28.8598 13.0952 28.5598 12.9093C28.2599 12.7235 27.8989 12.6631 27.5548 12.7413C27.2106 12.8222 26.9125 13.0364 26.7262 13.337C26.5399 13.6375 26.4807 13.9998 26.5615 14.344L27.9708 20.3293C28.0924 20.7588 28.1117 21.2108 28.0272 21.6491C27.9426 22.0874 27.7567 22.4998 27.4841 22.8533C27.2109 23.2118 26.8582 23.5019 26.4537 23.7009C26.0493 23.8999 25.6042 24.0023 25.1535 24H6.8468C5.95346 24 5.12146 23.604 4.56413 22.9133C4.2951 22.5852 4.1029 22.201 4.00162 21.789C3.90034 21.3769 3.89254 20.9475 3.9788 20.532L6.7708 10.1627C7.75746 5.74934 11.6268 2.668 16.1788 2.668C16.7521 2.668 17.3241 2.71867 17.8788 2.82C18.2269 2.88312 18.5859 2.80536 18.8767 2.60382C19.1675 2.40228 19.3663 2.09348 19.4295 1.74533C19.4926 1.39719 19.4148 1.03824 19.2133 0.747431C19.0117 0.456624 18.7029 0.25779 18.3548 0.194668C17.6363 0.0648056 16.9076 -0.000344363 16.1775 1.36877e-06C10.3681 1.36877e-06 5.42946 3.94 4.18146 9.52534L1.38946 19.8933C1.20551 20.708 1.20882 21.5538 1.39913 22.367C1.58943 23.1802 1.96178 23.9396 2.48813 24.588C3.01213 25.2394 3.67596 25.7646 4.43046 26.1246C5.18496 26.4847 6.01079 26.6704 6.8468 26.668H9.46813C10.0881 29.7067 12.7801 32.0013 16.0001 32.0013C19.2201 32.0013 21.9121 29.7067 22.5321 26.668H25.1521C26.9121 26.668 28.5348 25.868 29.6015 24.4733C30.1226 23.8011 30.4798 23.0167 30.6449 22.1824C30.8099 21.348 30.7781 20.4866 30.5521 19.6667L29.1575 13.736V13.7347ZM16.0001 29.3333C15.1756 29.3307 14.3721 29.073 13.6998 28.5955C13.0276 28.1181 12.5196 27.4443 12.2455 26.6667H19.7535C19.4794 27.4443 18.9713 28.1181 18.2991 28.5955C17.6268 29.073 16.8233 29.3307 15.9988 29.3333H16.0001Z" fill="white"/>
</g>
<defs>
<clipPath id="clip0_79_782">
<rect width="32" height="32" fill="white"/>
</clipPath>
</defs>
</svg>
