<svg width="24" height="24" viewBox="0 0 24 24" fill="none" xmlns="http://www.w3.org/2000/svg">
<path d="M14.1053 12.7895C14.1053 13.2059 13.9818 13.6129 13.7505 13.9592C13.5192 14.3054 13.1904 14.5752 12.8057 14.7346C12.421 14.8939 11.9977 14.9356 11.5893 14.8544C11.1809 14.7732 10.8058 14.5727 10.5114 14.2782C10.2169 13.9838 10.0164 13.6087 9.93519 13.2003C9.85396 12.7919 9.89564 12.3686 10.055 11.9839C10.2143 11.5992 10.4842 11.2704 10.8304 11.0391C11.1766 10.8078 11.5836 10.6843 12 10.6843C12.5579 10.6859 13.0924 10.9082 13.4869 11.3027C13.8813 11.6971 14.1037 12.2317 14.1053 12.7895ZM22 10.6843V15.9474C21.9981 17.2031 21.4985 18.4069 20.6106 19.2948C19.7226 20.1827 18.5189 20.6824 17.2632 20.6843H6.73684C5.48113 20.6824 4.2774 20.1827 3.38948 19.2948C2.50156 18.4069 2.00189 17.2031 2 15.9474V10.6843C2.00085 9.47764 2.46202 8.31677 3.28943 7.43849C4.11685 6.56021 5.24818 6.0307 6.45263 5.95796L7.77895 3.95782C8.02055 3.5989 8.34649 3.30471 8.72821 3.10103C9.10994 2.89735 9.53579 2.7904 9.96845 2.78955H14.0316C14.4642 2.7904 14.8901 2.89735 15.2718 3.10103C15.6535 3.30471 15.9795 3.5989 16.2211 3.95782L17.5474 5.95796C18.7519 6.0307 19.8832 6.56021 20.7106 7.43849C21.538 8.31677 21.9992 9.47764 22 10.6843ZM16.2105 12.7895C16.2105 11.9568 15.9636 11.1427 15.5009 10.4503C15.0382 9.75789 14.3806 9.21822 13.6113 8.89955C12.8419 8.58087 11.9953 8.4975 11.1786 8.65997C10.3618 8.82244 9.61156 9.22345 9.02272 9.8123C8.43387 10.4012 8.03287 11.1514 7.87041 11.9682C7.70795 12.7849 7.79133 13.6315 8.11002 14.4009C8.4287 15.1702 8.96837 15.8278 9.66079 16.2905C10.3532 16.7531 11.1673 17.0001 12 17.0001C12.553 17.0002 13.1006 16.8914 13.6115 16.6799C14.1224 16.4683 14.5866 16.1582 14.9776 15.7672C15.3687 15.3761 15.6788 14.9119 15.8903 14.401C16.1019 13.8901 16.2107 13.3425 16.2105 12.7895ZM19.3684 9.63162C19.3684 9.42344 19.3067 9.21993 19.191 9.04683C19.0753 8.87374 18.9109 8.73883 18.7186 8.65917C18.5262 8.57951 18.3146 8.55867 18.1104 8.59929C17.9062 8.63991 17.7187 8.74017 17.5715 8.88738C17.4243 9.03459 17.324 9.22215 17.2834 9.42633C17.2428 9.63052 17.2636 9.84216 17.3433 10.0345C17.423 10.2268 17.5579 10.3912 17.731 10.5069C17.9041 10.6226 18.1076 10.6843 18.3158 10.6843C18.5947 10.6834 18.862 10.5722 19.0592 10.375C19.2564 10.1778 19.3676 9.91053 19.3684 9.63162Z" fill="#FF8939"/>
</svg>
