<svg width="100" height="100" viewBox="0 0 100 100" fill="none" xmlns="http://www.w3.org/2000/svg">
    <path fill-rule="evenodd" clip-rule="evenodd" d="M35.0263 16.2108L29.1668 25H25.0002C15.7954 25 8.3335 32.4619 8.3335 41.6667V70.8333C8.3335 80.0381 15.7954 87.5 25.0002 87.5H75.0002C84.2049 87.5 91.6668 80.0381 91.6668 70.8333V41.6667C91.6668 32.4619 84.2049 25 75.0002 25H70.8335L64.974 16.2108C63.4285 13.8925 60.8266 12.5 58.0403 12.5H41.96C39.1737 12.5 36.5718 13.8925 35.0263 16.2108ZM62.5002 56.25C62.5002 63.1536 56.9037 68.75 50.0002 68.75C43.0966 68.75 37.5002 63.1536 37.5002 56.25C37.5002 49.3464 43.0966 43.75 50.0002 43.75C56.9037 43.75 62.5002 49.3464 62.5002 56.25ZM50.0002 29.1667C52.3013 29.1667 54.1668 27.3012 54.1668 25C54.1668 22.6988 52.3013 20.8333 50.0002 20.8333C47.699 20.8333 45.8335 22.6988 45.8335 25C45.8335 27.3012 47.699 29.1667 50.0002 29.1667Z" fill="#FF8939"/>
</svg>
