<svg width="100" height="100" viewBox="0 0 100 100" fill="none" xmlns="http://www.w3.org/2000/svg">
    <g clip-path="url(#clip0_631_808)">
        <path d="M70.6217 8.54167C65.1175 3.03333 57.7925 0 50.0009 0C42.2092 0 34.8842 3.03333 29.3759 8.54167C18.005 19.9125 18.005 38.4167 29.4092 49.8208L39.805 59.9875C42.6175 62.7375 46.3092 64.1125 50.0009 64.1125C53.6925 64.1125 57.3842 62.7375 60.1967 59.9875L70.6217 49.7875C76.13 44.2792 79.1675 36.9542 79.1675 29.1625C79.1675 21.3708 76.13 14.0542 70.6217 8.54167ZM50.0009 41.625C46.6857 41.625 43.5062 40.308 41.162 37.9638C38.8178 35.6196 37.5009 32.4402 37.5009 29.125C37.5009 25.8098 38.8178 22.6304 41.162 20.2862C43.5062 17.942 46.6857 16.625 50.0009 16.625C53.3161 16.625 56.4955 17.942 58.8397 20.2862C61.1839 22.6304 62.5009 25.8098 62.5009 29.125C62.5009 32.4402 61.1839 35.6196 58.8397 37.9638C56.4955 40.308 53.3161 41.625 50.0009 41.625ZM100.001 69.8417C100.005 70.5649 99.8209 71.2767 99.4666 71.9072C99.1123 72.5377 98.6 73.0651 97.98 73.4375L56.8925 98.0917C54.8124 99.3412 52.4316 100.001 50.005 100.001C47.5785 100.001 45.1976 99.3412 43.1175 98.0917L2.0217 73.4375C1.40207 73.065 0.890032 72.5376 0.535923 71.9073C0.181815 71.2769 -0.00217984 70.5653 0.00202356 69.8423C0.00622697 69.1193 0.198484 68.4099 0.559898 67.7837C0.921312 67.1575 1.43944 66.6361 2.06337 66.2708L22.2925 54.4292C22.7092 54.8875 23.1384 55.3417 23.58 55.7833L33.9759 65.9458C38.2592 70.1375 43.955 72.45 50.0009 72.45C56.0467 72.45 61.7384 70.1375 66.0259 65.9458L76.5175 55.6833C76.9257 55.2745 77.3244 54.8563 77.7134 54.4292L97.9384 66.2667C99.2092 67.0125 99.9925 68.375 100.001 69.8417Z" fill="url(#paint0_linear_631_808)"/>
    </g>
    <defs>
        <linearGradient id="paint0_linear_631_808" x1="0.00195312" y1="0" x2="71.6146" y2="117.327" gradientUnits="userSpaceOnUse">
            <stop stop-color="#96FFD9"/>
            <stop offset="1" stop-color="#6196FF"/>
        </linearGradient>
        <clipPath id="clip0_631_808">
            <rect width="100" height="100" fill="white"/>
        </clipPath>
    </defs>
</svg>
