<svg width="24" height="24" viewBox="0 0 24 24" fill="none" xmlns="http://www.w3.org/2000/svg">
<path d="M12.0004 1C9.73131 1 7.55517 1.90139 5.95069 3.50586C4.34621 5.11034 3.44482 7.28648 3.44482 9.55556C3.44482 16.4815 12.0004 23 12.0004 23C12.0004 23 20.5559 16.4815 20.5559 9.55556C20.5559 7.28648 19.6546 5.11034 18.0501 3.50586C16.4456 1.90139 14.2695 1 12.0004 1ZM12.0004 13.6296C11.1946 13.6296 10.4069 13.3907 9.73695 12.943C9.06697 12.4954 8.54478 11.8591 8.23643 11.1146C7.92807 10.3702 7.84739 9.55104 8.00459 8.76074C8.16179 7.97045 8.54981 7.24452 9.11957 6.67475C9.68934 6.10498 10.4153 5.71696 11.2056 5.55976C11.9959 5.40256 12.815 5.48324 13.5595 5.7916C14.3039 6.09996 14.9402 6.62214 15.3878 7.29212C15.8355 7.9621 16.0745 8.74978 16.0745 9.55556C16.0745 10.6361 15.6452 11.6723 14.8812 12.4364C14.1171 13.2004 13.0809 13.6296 12.0004 13.6296Z" fill="#FF8939"/>
</svg>
