<svg width="24" height="24" viewBox="0 0 24 24" fill="none" xmlns="http://www.w3.org/2000/svg">
<path d="M12.0002 1C10.0111 1 8.10341 1.79018 6.69688 3.1967C5.29036 4.60322 4.50018 6.51088 4.50018 8.5V14.35L2.84018 16.85C2.64122 17.1568 2.52836 17.5114 2.51342 17.8767C2.49849 18.2421 2.58202 18.6047 2.75528 18.9267C2.92855 19.2487 3.18517 19.5182 3.4983 19.707C3.81142 19.8959 4.16955 19.997 4.53518 20H19.4652C19.8332 19.9988 20.194 19.898 20.5094 19.7085C20.8248 19.5189 21.083 19.2475 21.2568 18.9231C21.4305 18.5987 21.5133 18.2333 21.4963 17.8657C21.4792 17.4981 21.3631 17.142 21.1602 16.835L19.5002 14.35V8.5C19.5002 6.51088 18.71 4.60322 17.3035 3.1967C15.897 1.79018 13.9893 1 12.0002 1Z" fill="#FF8939"/>
<path d="M12.0003 23C12.6201 22.9993 13.2245 22.8066 13.7303 22.4485C14.2362 22.0904 14.6187 21.5844 14.8253 21H9.17529C9.38189 21.5844 9.76441 22.0904 10.2703 22.4485C10.7761 22.8066 11.3805 22.9993 12.0003 23Z" fill="#FF8939"/>
</svg>
