<svg width="100" height="100" viewBox="0 0 100 100" fill="none" xmlns="http://www.w3.org/2000/svg">
    <path fill-rule="evenodd" clip-rule="evenodd" d="M31.0906 8.33384C32.693 7.69286 34.5117 8.47228 35.1527 10.0747C35.7937 11.6772 35.0142 13.4958 33.4118 14.1368L32.715 14.4155C27.274 16.5919 22.9337 20.8605 20.6669 26.2645L20.3469 27.0274C19.6793 28.619 17.8479 29.368 16.2564 28.7004C14.6648 28.0328 13.9158 26.2014 14.5834 24.6099L14.9034 23.847C17.8178 16.899 23.3982 11.4108 30.3938 8.61255L31.0906 8.33384ZM68.9095 8.51796C67.307 7.87698 65.4883 8.65641 64.8474 10.2589C64.2064 11.8613 64.9858 13.68 66.5883 14.3209L67.285 14.5996C72.7261 16.7761 77.0664 21.0446 79.3331 26.4487L79.6531 27.2116C80.3207 28.8031 82.1521 29.5521 83.7437 28.8845C85.3352 28.2169 86.0842 26.3856 85.4166 24.794L85.0966 24.0311C82.1822 17.0831 76.6019 11.5949 69.6062 8.79667L68.9095 8.51796ZM25.9284 75.001H74.0716C81.6899 75.001 86.0385 67.338 81.4676 61.9681C79.444 59.5909 78.197 56.7713 77.8614 53.8145L75.9981 37.3976C74.9934 28.5453 68.3848 21.2809 59.4581 18.2246V17.7924C59.4581 12.5688 55.2236 8.33431 50 8.33431C44.7765 8.33431 40.5419 12.5688 40.5419 17.7924V18.2246C31.6153 21.2809 25.0067 28.5453 24.002 37.3976L22.1387 53.8145C21.8031 56.7713 20.556 59.5909 18.5325 61.9681C13.9615 67.338 18.3102 75.001 25.9284 75.001ZM62.3838 83.6324C60.478 88.331 55.6522 91.6676 50 91.6676C44.3479 91.6676 39.522 88.331 37.6163 83.6324C37.5368 83.4364 37.5 83.226 37.5 83.0145C37.5 82.04 38.29 81.25 39.2646 81.25H60.7355C61.71 81.25 62.5 82.04 62.5 83.0145C62.5 83.226 62.4632 83.4364 62.3838 83.6324Z" fill="#FF8939"/>
</svg>
