<svg width="100" height="100" viewBox="0 0 100 100" fill="none" xmlns="http://www.w3.org/2000/svg">
    <path fill-rule="evenodd" clip-rule="evenodd" d="M14.7097 10.2903C13.4893 9.0699 11.5107 9.0699 10.2903 10.2903C9.0699 11.5107 9.0699 13.4893 10.2903 14.7097L23.5792 27.9986C20.2252 29.8761 16.9346 32.1225 13.7323 34.7379C10.5124 37.3676 10.1746 42.0693 12.6492 45.41L43.3035 86.7933C46.635 91.2908 53.3647 91.2908 56.6961 86.7933L67.6229 72.0423L85.2903 89.7097C86.5107 90.9301 88.4893 90.9301 89.7097 89.7097C90.9301 88.4893 90.9301 86.5107 89.7097 85.2903L14.7097 10.2903ZM87.3503 45.41C89.8248 42.0693 89.4871 37.3676 86.2672 34.7379C70.5411 21.8942 52.6866 17.9483 35.6527 22.9003L74.9299 62.1775L87.3503 45.41Z" fill="#FF8939"/>
</svg>
