<svg width="25" height="24" viewBox="0 0 25 24" fill="none" xmlns="http://www.w3.org/2000/svg">
    <g clip-path="url(#clip0_38_956)">
        <path d="M13.2498 1V23C13.2498 23.55 12.7998 24 12.2498 24C11.6998 24 11.2498 23.55 11.2498 23V1C11.2498 0.45 11.6998 0 12.2498 0C12.7998 0 13.2498 0.45 13.2498 1ZM9.24977 12C9.24977 12.65 8.96977 13.28 8.48977 13.71L3.40977 18.5C3.14176 18.749 2.80658 18.914 2.44575 18.9744C2.08492 19.0349 1.71429 18.9881 1.37977 18.84C0.689766 18.54 0.259766 17.88 0.259766 17.12V6.88C0.259766 6.13 0.689766 5.47 1.37977 5.16C2.06977 4.86 2.84977 4.98 3.39977 5.49L8.50977 10.3C8.97977 10.72 9.25977 11.34 9.25977 11.99L9.24977 12ZM7.24977 12C7.24977 12 7.23977 11.86 7.14977 11.78L2.24977 7.17V16.84L7.12977 12.24C7.22977 12.15 7.24977 12.05 7.24977 12ZM24.2498 6.88V17.13C24.2498 17.88 23.8198 18.54 23.1298 18.85C22.7971 18.999 22.4278 19.0462 22.0683 18.9857C21.7089 18.9252 21.3753 18.7597 21.1098 18.51L15.9998 13.7C15.5298 13.28 15.2498 12.66 15.2498 12.01C15.2498 11.36 15.5298 10.74 16.0098 10.3L21.0898 5.51C21.6598 4.99 22.4298 4.86 23.1198 5.17C23.8098 5.47 24.2398 6.13 24.2398 6.89L24.2498 6.88Z" fill="white"/>
    </g>
    <defs>
        <clipPath id="clip0_38_956">
            <rect width="24" height="24" fill="white" transform="translate(0.25)"/>
        </clipPath>
    </defs>
</svg>
