<svg width="25" height="24" viewBox="0 0 25 24" fill="none" xmlns="http://www.w3.org/2000/svg">
    <g clip-path="url(#clip0_38_951)">
        <path d="M23.5 12C23.2348 12 22.9804 12.1054 22.7929 12.2929C22.6054 12.4805 22.5 12.7348 22.5 13V16H16.414L10.5 10.086V2.00002H11.5C11.7652 2.00002 12.0196 1.89467 12.2071 1.70713C12.3946 1.51959 12.5 1.26524 12.5 1.00002C12.5 0.734807 12.3946 0.480453 12.2071 0.292917C12.0196 0.10538 11.7652 2.34377e-05 11.5 2.34377e-05H5.5C2.743 2.34377e-05 0.5 2.24302 0.5 5.00002V19C0.5 21.757 2.743 24 5.5 24H19.5C22.257 24 24.5 21.757 24.5 19V13C24.5 12.7348 24.3946 12.4805 24.2071 12.2929C24.0196 12.1054 23.7652 12 23.5 12ZM5.5 2.00002H8.5V9.90002L2.5 13.099V5.00002C2.5 3.34602 3.846 2.00002 5.5 2.00002ZM2.5 19V15.367L9.317 11.731L14.679 17.093L11 21.999H5.5C3.846 21.999 2.5 20.654 2.5 19ZM19.5 22H13.5L16.5 18H22.5V19C22.5 20.654 21.154 22 19.5 22ZM16.951 11.189C17.4988 11.7234 18.2348 12.0208 19 12.017C19.7651 12.0201 20.5009 11.7228 21.049 11.189L22.889 9.38802C23.4015 8.87864 23.8078 8.2726 24.0844 7.60502C24.3609 6.93744 24.5022 6.22161 24.5 5.49902C24.5022 4.77644 24.3609 4.06061 24.0844 3.39303C23.8078 2.72545 23.4015 2.11941 22.889 1.61002C21.85 0.571024 20.469 -0.000976562 19 -0.000976562C17.531 -0.000976562 16.149 0.571024 15.111 1.61002C14.5985 2.11941 14.1922 2.72545 13.9157 3.39303C13.6391 4.06061 13.4978 4.77644 13.5 5.49902C13.5 6.96902 14.072 8.35003 15.119 9.39503L16.951 11.188V11.189ZM16.525 3.02502C17.186 2.36402 18.064 2.00002 19 2.00002C19.936 2.00002 20.813 2.36402 21.475 3.02502C22.137 3.68602 22.5 4.56502 22.5 5.50002C22.5 6.43502 22.136 7.31302 21.482 7.96702L19.65 9.76003C19.4756 9.92895 19.2423 10.0234 18.9995 10.0234C18.7567 10.0234 18.5234 9.92895 18.349 9.76003L16.525 7.97502C15.864 7.31402 15.5 6.43502 15.5 5.50002C15.5 4.56502 15.864 3.68702 16.525 3.02502ZM17.499 5.49402C17.4991 5.29698 17.5379 5.10187 17.6134 4.91985C17.6889 4.73782 17.7995 4.57244 17.9388 4.43316C18.0782 4.29387 18.2437 4.1834 18.4257 4.10805C18.6078 4.0327 18.803 3.99396 19 3.99402C19.1971 3.99409 19.3922 4.03297 19.5742 4.10843C19.7562 4.1839 19.9216 4.29448 20.0609 4.43386C20.2002 4.57324 20.3106 4.7387 20.386 4.92077C20.4613 5.10284 20.5001 5.29798 20.5 5.49502C20.4999 5.89285 20.3417 6.27433 20.0603 6.55554C19.7789 6.83675 19.3973 6.99466 18.9995 6.99452C18.6017 6.99439 18.2202 6.83623 17.939 6.55483C17.6578 6.27343 17.4989 5.89185 17.499 5.49402Z" fill="white"/>
    </g>
    <defs>
        <clipPath id="clip0_38_951">
            <rect width="24" height="24" fill="white" transform="translate(0.5)"/>
        </clipPath>
    </defs>
</svg>
