<svg width="65" height="64" viewBox="0 0 65 64" fill="none" xmlns="http://www.w3.org/2000/svg">
    <circle cx="32.5" cy="32.5" r="31.5" fill="white"/>
    <circle cx="32.5" cy="32.5" r="31.5" fill="url(#paint0_linear_38_961)"/>
    <g clip-path="url(#clip0_38_961)">
        <path d="M45.8333 18.7534C41.9314 15.31 36.841 13.523 31.6429 13.7719C26.4448 14.0209 21.5485 16.2861 17.9935 20.0866C14.4385 23.8872 12.5049 28.9237 12.6032 34.1268C12.7015 39.3299 14.824 44.2898 18.52 47.9534C20.0806 49.4838 22.1808 50.3387 24.3666 50.3334H40.645C42.7147 50.3615 44.7161 49.593 46.235 48.1867C48.2332 46.2791 49.8165 43.9798 50.8858 41.4325C51.9552 38.8853 52.4877 36.1449 52.45 33.3825C52.4123 30.6201 51.8052 27.8953 50.6667 25.3781C49.5283 22.861 47.8828 20.6058 45.8333 18.7534ZM43.9466 45.7651C43.0441 46.5832 41.8628 47.0251 40.645 47.0001H24.3666C23.052 47.0042 21.7886 46.4905 20.85 45.5701C18.4725 43.2462 16.8443 40.2645 16.1747 37.0081C15.505 33.7517 15.8246 30.3694 17.0923 27.296C18.36 24.2226 20.5178 21.5986 23.2885 19.7612C26.0592 17.9238 29.316 16.957 32.6405 16.9851C35.9649 17.0131 39.205 18.0348 41.9442 19.9187C44.6835 21.8026 46.7967 24.4627 48.0123 27.5571C49.2279 30.6514 49.4903 34.0386 48.7658 37.2832C48.0413 40.5279 46.363 43.4817 43.9466 45.7651ZM44.28 33.6501C44.0633 33.6812 43.8426 33.6693 43.6305 33.6151C43.4184 33.5609 43.2191 33.4655 43.0439 33.3342C42.8687 33.203 42.721 33.0385 42.6094 32.8502C42.4978 32.6619 42.4244 32.4534 42.3933 32.2367C42.0424 29.8609 40.8511 27.6896 39.0358 26.1171C37.2206 24.5447 34.9016 23.6752 32.5 23.6667C23.72 23.5001 19.1 34.8101 25.5116 40.8084C25.8277 41.1178 26.0079 41.5401 26.0126 41.9824C26.0172 42.4247 25.8461 42.8507 25.5366 43.1667C25.2272 43.4828 24.8049 43.663 24.3626 43.6677C23.9204 43.6723 23.4943 43.5011 23.1783 43.1917C14.645 35.0801 20.7316 20.1917 32.5 20.3334C35.7033 20.3451 38.7964 21.5047 41.2179 23.6018C43.6395 25.6989 45.2291 28.5946 45.6983 31.7634C45.7294 31.9802 45.7175 32.201 45.6632 32.4132C45.6089 32.6254 45.5133 32.8248 45.3819 33C45.2504 33.1752 45.0858 33.3228 44.8973 33.4344C44.7088 33.5459 44.5001 33.6192 44.2833 33.6501H44.28ZM44.78 39.0567C44.692 39.2573 44.5655 39.4385 44.4075 39.5901C44.2495 39.7417 44.0631 39.8607 43.8591 39.9402C43.6551 40.0198 43.4375 40.0583 43.2186 40.0537C42.9996 40.0491 42.7838 40.0014 42.5833 39.9134L34.4716 36.3534C33.8811 36.7891 33.1634 37.0178 32.4296 37.004C31.6959 36.9902 30.9872 36.7347 30.4136 36.277C29.8399 35.8194 29.4333 35.1852 29.2568 34.4728C29.0804 33.7605 29.1439 33.0099 29.4376 32.3373C29.7313 31.6648 30.2387 31.108 30.8811 30.7533C31.5235 30.3985 32.2651 30.2657 32.9907 30.3754C33.7163 30.4851 34.3854 30.8312 34.8943 31.36C35.4031 31.8888 35.7232 32.5708 35.805 33.3001L43.9166 36.8601C44.1179 36.9472 44.3 37.0732 44.4524 37.2309C44.6049 37.3886 44.7248 37.5748 44.8051 37.7788C44.8855 37.9829 44.9248 38.2008 44.9207 38.4201C44.9167 38.6394 44.8678 38.8557 44.78 39.0567Z" fill="white"/>
    </g>
    <defs>
        <linearGradient id="paint0_linear_38_961" x1="1" y1="1" x2="46.1149" y2="74.9162" gradientUnits="userSpaceOnUse">
            <stop stop-color="#79E3BD"/>
            <stop offset="1" stop-color="#4878D7"/>
        </linearGradient>
        <clipPath id="clip0_38_961">
            <rect width="40" height="40" fill="white" transform="translate(12.5 12)"/>
        </clipPath>
    </defs>
</svg>
