<svg width="25" height="24" viewBox="0 0 25 24" fill="none" xmlns="http://www.w3.org/2000/svg">
    <g clip-path="url(#clip0_38_968)">
        <path d="M1.74989 16.4998C1.74989 15.8368 2.01328 15.2009 2.48213 14.7321C2.95097 14.2632 3.58685 13.9998 4.24989 13.9998C4.91293 13.9998 5.54882 14.2632 6.01766 14.7321C6.4865 15.2009 6.74989 15.8368 6.74989 16.4998C6.74989 17.1629 6.4865 17.7987 6.01766 18.2676C5.54882 18.7364 4.91293 18.9998 4.24989 18.9998C3.58685 18.9998 2.95097 18.7364 2.48213 18.2676C2.01328 17.7987 1.74989 17.1629 1.74989 16.4998ZM4.24989 19.9998C2.56989 19.9998 1.10589 21.1758 0.770892 22.7968C0.74148 22.9264 0.738195 23.0606 0.76123 23.1915C0.784265 23.3224 0.833157 23.4473 0.90505 23.5591C0.976942 23.6709 1.07039 23.7672 1.17994 23.8424C1.28949 23.9177 1.41293 23.9703 1.54306 23.9973C1.67319 24.0243 1.80739 24.0251 1.93782 23.9996C2.06825 23.9741 2.19229 23.9229 2.3027 23.8489C2.41311 23.7749 2.50766 23.6797 2.58084 23.5688C2.65402 23.4578 2.70435 23.3334 2.72889 23.2028C2.87389 22.5058 3.51289 21.9998 4.24989 21.9998C4.98689 21.9998 5.62589 22.5058 5.77089 23.2028C5.79544 23.3334 5.84577 23.4578 5.91894 23.5688C5.99212 23.6797 6.08668 23.7749 6.19708 23.8489C6.30749 23.9229 6.43154 23.9741 6.56197 23.9996C6.6924 24.0251 6.8266 24.0243 6.95673 23.9973C7.08685 23.9703 7.2103 23.9177 7.31985 23.8424C7.42939 23.7672 7.52284 23.6709 7.59473 23.5591C7.66663 23.4473 7.71552 23.3224 7.73855 23.1915C7.76159 23.0606 7.7583 22.9264 7.72889 22.7968C7.39389 21.1758 5.92989 19.9998 4.24989 19.9998ZM20.7499 13.9998H11.7499C10.6469 13.9998 9.74989 13.1028 9.74989 11.9998C9.74989 10.8968 10.6469 9.99982 11.7499 9.99982H12.7499C13.0151 9.99982 13.2695 9.89446 13.457 9.70692C13.6445 9.51939 13.7499 9.26503 13.7499 8.99982C13.7499 8.7346 13.6445 8.48025 13.457 8.29271C13.2695 8.10518 13.0151 7.99982 12.7499 7.99982H11.7499C9.54389 7.99982 7.74989 9.79382 7.74989 11.9998C7.74989 14.2058 9.54389 15.9998 11.7499 15.9998H20.7499C21.8529 15.9998 22.7499 16.8968 22.7499 17.9998C22.7499 19.1028 21.8529 19.9998 20.7499 19.9998H10.7499C10.4847 19.9998 10.2303 20.1052 10.0428 20.2927C9.85525 20.4802 9.74989 20.7346 9.74989 20.9998C9.74989 21.265 9.85525 21.5194 10.0428 21.7069C10.2303 21.8945 10.4847 21.9998 10.7499 21.9998H20.7499C22.9559 21.9998 24.7499 20.2058 24.7499 17.9998C24.7499 15.7938 22.9559 13.9998 20.7499 13.9998ZM16.2529 7.38882L15.3909 10.1538C15.3339 10.335 15.3346 10.5294 15.3929 10.7101C15.4511 10.8909 15.564 11.0491 15.7161 11.1629C15.8681 11.2767 16.0517 11.3406 16.2415 11.3456C16.4314 11.3506 16.6181 11.2965 16.7759 11.1908L19.2579 9.52982L21.7819 11.1738C21.9411 11.2775 22.1286 11.3291 22.3185 11.3215C22.5083 11.314 22.6912 11.2477 22.8417 11.1317C22.9922 11.0158 23.103 10.856 23.1587 10.6743C23.2145 10.4927 23.2125 10.2982 23.1529 10.1178L22.2559 7.38582L24.4249 5.61882C24.5691 5.49795 24.6726 5.33561 24.7213 5.15386C24.7699 4.97211 24.7615 4.77978 24.697 4.60301C24.6326 4.42624 24.5152 4.27361 24.361 4.16587C24.2067 4.05812 24.023 4.0005 23.8349 4.00082H21.0839L20.1099 1.26882C20.0449 1.09335 19.9278 0.94199 19.7742 0.835095C19.6206 0.7282 19.438 0.670898 19.2509 0.670898C19.0638 0.670898 18.8812 0.7282 18.7276 0.835095C18.574 0.94199 18.4569 1.09335 18.3919 1.26882L17.4179 4.00082H14.6669C14.4789 4.00037 14.2954 4.05774 14.1412 4.16515C13.987 4.27257 13.8695 4.42482 13.8048 4.60126C13.74 4.7777 13.7311 4.96978 13.7793 5.15146C13.8274 5.33313 13.9303 5.4956 14.0739 5.61682L16.2529 7.38882Z" fill="white"/>
    </g>
    <defs>
        <clipPath id="clip0_38_968">
            <rect width="24" height="24" fill="white" transform="translate(0.75)"/>
        </clipPath>
    </defs>
</svg>
