<svg width="20" height="20" viewBox="0 0 20 20" fill="none" xmlns="http://www.w3.org/2000/svg">
<path fill-rule="evenodd" clip-rule="evenodd" d="M12.4229 14.9566C12.6942 15.135 12.7696 15.4995 12.5912 15.7709L10.6584 18.7105C10.48 18.9818 10.1154 19.0572 9.8441 18.8788C9.57278 18.7004 9.49745 18.3358 9.67584 18.0645L11.6087 15.1249C11.7871 14.8535 12.1516 14.7782 12.4229 14.9566Z" fill="white"/>
<path fill-rule="evenodd" clip-rule="evenodd" d="M10.6584 12.0173C10.9296 12.1959 11.0047 12.5605 10.8262 12.8317L8.50387 16.3593C8.32532 16.6305 7.96072 16.7056 7.68951 16.5271C7.4183 16.3485 7.34319 15.9839 7.52173 15.7127L9.84406 12.1851C10.0226 11.9139 10.3872 11.8388 10.6584 12.0173Z" fill="white"/>
<path fill-rule="evenodd" clip-rule="evenodd" d="M13.0846 3.18589C12.2292 3.01575 11.3426 3.10307 10.5369 3.43681C9.73115 3.77056 9.04248 4.33573 8.55796 5.06087C8.07344 5.786 7.81482 6.63853 7.81482 7.51065C7.81482 7.83535 7.5516 8.09858 7.22689 8.09858C6.90219 8.09858 6.63896 7.83535 6.63896 7.51065C6.63896 7.22199 6.66133 6.93503 6.70532 6.65219C6.58713 6.63599 6.46774 6.62813 6.34802 6.62874L6.34499 6.62875C5.64331 6.62875 4.97037 6.90749 4.47421 7.40366C3.97804 7.89982 3.6993 8.57276 3.6993 9.27444C3.6993 9.97612 3.97804 10.6491 4.47421 11.1452C4.97037 11.6414 5.64331 11.9201 6.34499 11.9201H12.2243C13.0964 11.9201 13.949 11.6615 14.6741 11.177C15.3992 10.6925 15.9644 10.0038 16.2981 9.19809C16.6319 8.39236 16.7192 7.50576 16.5491 6.6504C16.3789 5.79504 15.959 5.00935 15.3423 4.39267C14.7256 3.77599 13.9399 3.35603 13.0846 3.18589ZM7.00959 5.50995C7.15751 5.12438 7.34848 4.75448 7.58026 4.40759C8.19399 3.48909 9.0663 2.7732 10.0869 2.35046C11.1075 1.92771 12.2305 1.8171 13.314 2.03262C14.3974 2.24813 15.3926 2.78008 16.1738 3.56121C16.9549 4.34233 17.4868 5.33755 17.7023 6.421C17.9179 7.50445 17.8072 8.62748 17.3845 9.64807C16.9618 10.6687 16.2459 11.541 15.3274 12.1547C14.4089 12.7684 13.329 13.096 12.2243 13.096H6.34499C5.33145 13.096 4.35943 12.6934 3.64275 11.9767C2.92606 11.26 2.52344 10.288 2.52344 9.27444C2.52344 8.2609 2.92606 7.28888 3.64275 6.57219C4.35907 5.85587 5.3305 5.45328 6.3435 5.45289" fill="white"/>
</svg>
