<svg width="19" height="20" viewBox="0 0 19 20" fill="none" xmlns="http://www.w3.org/2000/svg">
<path fill-rule="evenodd" clip-rule="evenodd" d="M9.83662 1.44368L9.49947 1.92533L9.16231 1.44368C9.36475 1.30198 9.63419 1.30198 9.83662 1.44368ZM9.49947 2.66025C9.35615 2.77204 9.1731 2.91925 8.9616 3.09903C8.42679 3.55362 7.71437 4.21276 7.00347 5.0303C5.5673 6.6819 4.20809 8.89823 4.20809 11.3322C4.20809 12.7356 4.76557 14.0815 5.7579 15.0738C6.75022 16.0661 8.09611 16.6236 9.49947 16.6236C10.9028 16.6236 12.2487 16.0661 13.241 15.0738C14.2334 14.0815 14.7908 12.7356 14.7908 11.3322C14.7908 8.89823 13.4316 6.6819 11.9955 5.0303C11.2846 4.21276 10.5721 3.55362 10.0373 3.09903C9.82583 2.91925 9.64278 2.77204 9.49947 2.66025ZM9.16196 1.44393C9.16215 1.4438 9.16231 1.44368 9.49947 1.92533C9.83662 1.44368 9.83679 1.4438 9.83698 1.44393L9.83746 1.44427L9.83884 1.44524L9.84318 1.4483L9.85813 1.45893C9.87084 1.46801 9.88896 1.48106 9.91215 1.49798C9.95851 1.53182 10.0251 1.5812 10.1091 1.64538C10.277 1.77372 10.5147 1.96153 10.7989 2.20309C11.3664 2.68552 12.1239 3.38597 12.8828 4.25873C14.3863 5.98773 15.9667 8.47485 15.9667 11.3322C15.9667 13.0474 15.2853 14.6924 14.0725 15.9053C12.8597 17.1181 11.2147 17.7995 9.49947 17.7995C7.78425 17.7995 6.13928 17.1181 4.92644 15.9053C3.71359 14.6924 3.03223 13.0474 3.03223 11.3322C3.03223 8.47485 4.61268 5.98773 6.11616 4.25873C6.87508 3.38597 7.63249 2.68552 8.20005 2.20309C8.48424 1.96153 8.72191 1.77372 8.88983 1.64538C8.97381 1.5812 9.04043 1.53182 9.08679 1.49798C9.10997 1.48106 9.1281 1.46801 9.1408 1.45893L9.15575 1.4483L9.1601 1.44524L9.16147 1.44427L9.16196 1.44393Z" fill="white"/>
<path fill-rule="evenodd" clip-rule="evenodd" d="M13.0755 11.348C13.3955 11.4031 13.6102 11.7071 13.5551 12.0271C13.4108 12.8654 13.0099 13.6381 12.4077 14.2388C11.8055 14.8395 11.0317 15.2384 10.1931 15.3806C9.87299 15.4348 9.56947 15.2193 9.5152 14.8992C9.46093 14.579 9.67646 14.2755 9.9966 14.2212C10.5952 14.1198 11.1475 13.835 11.5773 13.4063C12.0072 12.9775 12.2933 12.4259 12.3963 11.8276C12.4514 11.5076 12.7555 11.2929 13.0755 11.348Z" fill="white"/>
</svg>
