<svg width="20" height="20" viewBox="0 0 20 20" fill="none" xmlns="http://www.w3.org/2000/svg">
<path fill-rule="evenodd" clip-rule="evenodd" d="M11.9301 11.9204C12.3599 11.9201 12.7816 12.0376 13.1493 12.2601C13.5171 12.4827 13.8168 12.8019 14.0159 13.1829C14.2151 13.5639 14.3059 13.9922 14.2787 14.4212C14.2514 14.8502 14.1071 15.2636 13.8614 15.6163C13.6157 15.9691 13.2779 16.2477 12.8849 16.422C12.4919 16.5963 12.0587 16.6595 11.6323 16.6047C11.2059 16.55 10.8027 16.3794 10.4664 16.1116C10.1302 15.8437 9.87376 15.4888 9.72508 15.0854C9.61279 14.7808 9.76874 14.4428 10.0734 14.3305C10.3781 14.2182 10.7161 14.3741 10.8284 14.6788C10.9027 14.8805 11.0309 15.0579 11.1991 15.1919C11.3672 15.3258 11.5688 15.4111 11.782 15.4384C11.9952 15.4658 12.2118 15.4342 12.4083 15.3471C12.6048 15.2599 12.7737 15.1206 12.8965 14.9442C13.0194 14.7679 13.0916 14.5612 13.1052 14.3467C13.1188 14.1322 13.0734 13.918 12.9738 13.7275C12.8743 13.537 12.7244 13.3774 12.5405 13.2661C12.3566 13.1549 12.1457 13.0961 11.9308 13.0963L3.69926 13.0963C3.37455 13.0963 3.11133 12.833 3.11133 12.5083C3.11133 12.1836 3.37455 11.9204 3.69926 11.9204H11.9301Z" fill="white"/>
<path fill-rule="evenodd" clip-rule="evenodd" d="M10.0567 4.96576C9.86018 4.87863 9.64356 4.84703 9.43036 4.8744C9.21716 4.90176 9.01554 4.98704 8.84741 5.12097C8.67928 5.2549 8.55108 5.43235 8.47675 5.63404C8.36445 5.93871 8.02644 6.09466 7.72177 5.98236C7.4171 5.87007 7.26115 5.53205 7.37344 5.22739C7.52211 4.82401 7.77851 4.46911 8.11476 4.20125C8.45102 3.93339 8.85426 3.76283 9.28066 3.7081C9.70706 3.65337 10.1403 3.71657 10.5333 3.89083C10.9263 4.06508 11.264 4.34373 11.5097 4.69648C11.7555 5.04923 11.8998 5.46259 11.927 5.89162C11.9543 6.32066 11.8634 6.74895 11.6643 7.12996C11.4652 7.51096 11.1654 7.8301 10.7976 8.05267C10.43 8.27517 10.0084 8.39267 9.57865 8.39241H2.52348C2.19877 8.39241 1.93555 8.12919 1.93555 7.80448C1.93555 7.47978 2.19877 7.21655 2.52348 7.21655H9.57865C9.7936 7.21672 10.005 7.15797 10.1888 7.04668C10.3727 6.93539 10.5226 6.77583 10.6222 6.58532C10.7217 6.39482 10.7672 6.18067 10.7536 5.96616C10.7399 5.75164 10.6678 5.54496 10.5449 5.36858C10.422 5.19221 10.2532 5.05289 10.0567 4.96576Z" fill="white"/>
<path fill-rule="evenodd" clip-rule="evenodd" d="M16.5239 7.31781C16.3274 7.23068 16.1108 7.19908 15.8976 7.22645C15.6844 7.25381 15.4827 7.33909 15.3146 7.47302C15.1465 7.60695 15.0183 7.7844 14.9439 7.98609C14.8317 8.29076 14.4936 8.44671 14.189 8.33441C13.8843 8.22212 13.7283 7.88411 13.8406 7.57944C13.9893 7.17606 14.2457 6.82116 14.582 6.5533C14.9182 6.28545 15.3215 6.11488 15.7479 6.06015C16.1743 6.00542 16.6075 6.06862 17.0005 6.24288C17.3935 6.41713 17.7312 6.69578 17.9769 7.04853C18.2227 7.40128 18.367 7.81464 18.3943 8.24367C18.4215 8.67271 18.3306 9.101 18.1315 9.48201C17.9324 9.86301 17.6326 10.1821 17.2648 10.4047C16.8972 10.6272 16.4755 10.7447 16.0458 10.7445C16.0456 10.7445 16.0459 10.7445 16.0458 10.7445H3.11137C2.78666 10.7445 2.52344 10.4812 2.52344 10.1565C2.52344 9.83183 2.78666 9.5686 3.11137 9.5686H16.0459C16.2608 9.56877 16.4722 9.51002 16.656 9.39873C16.8399 9.28744 16.9898 9.12788 17.0894 8.93737C17.1889 8.74687 17.2344 8.53272 17.2208 8.31821C17.2071 8.10369 17.135 7.89701 17.0121 7.72064C16.8892 7.54426 16.7204 7.40494 16.5239 7.31781Z" fill="white"/>
</svg>
