<svg width="20" height="20" viewBox="0 0 20 20" fill="none" xmlns="http://www.w3.org/2000/svg">
<path fill-rule="evenodd" clip-rule="evenodd" d="M6.62095 3.18348C6.92073 3.0587 7.26489 3.20057 7.38967 3.50035L7.95555 4.85994C8.08032 5.15972 7.93845 5.50388 7.63868 5.62865C7.3389 5.75343 6.99474 5.61156 6.86997 5.31178L6.30408 3.95219C6.17931 3.65241 6.32118 3.30825 6.62095 3.18348Z" fill="white"/>
<path fill-rule="evenodd" clip-rule="evenodd" d="M1.85096 7.95347C1.97573 7.6537 2.31989 7.51183 2.61967 7.6366L3.97926 8.20249C4.27904 8.32726 4.42091 8.67142 4.29613 8.9712C4.17136 9.27097 3.8272 9.41284 3.52742 9.28807L2.16783 8.72219C1.86805 8.59742 1.72618 8.25325 1.85096 7.95347Z" fill="white"/>
<path fill-rule="evenodd" clip-rule="evenodd" d="M18.1487 7.95347C18.2734 8.25325 18.1316 8.59742 17.8318 8.72219L16.4722 9.28807C16.1724 9.41284 15.8283 9.27097 15.7035 8.9712C15.5787 8.67142 15.7206 8.32726 16.0204 8.20249L17.38 7.6366C17.6797 7.51183 18.0239 7.6537 18.1487 7.95347Z" fill="white"/>
<path fill-rule="evenodd" clip-rule="evenodd" d="M13.3779 3.18348C13.6777 3.30825 13.8196 3.65241 13.6948 3.95219L13.1289 5.31178C13.0042 5.61156 12.66 5.75343 12.3602 5.62865C12.0604 5.50388 11.9186 5.15972 12.0433 4.85994L12.6092 3.50035C12.734 3.20057 13.0782 3.0587 13.3779 3.18348Z" fill="white"/>
<path fill-rule="evenodd" clip-rule="evenodd" d="M1.18066 12.5083C1.18066 12.1836 1.44389 11.9204 1.7686 11.9204H18.2307C18.5554 11.9204 18.8186 12.1836 18.8186 12.5083C18.8186 12.833 18.5554 13.0963 18.2307 13.0963H1.7686C1.44389 13.0963 1.18066 12.833 1.18066 12.5083Z" fill="white"/>
<path fill-rule="evenodd" clip-rule="evenodd" d="M3.53223 15.4478C3.53223 15.1231 3.79545 14.8599 4.12016 14.8599H15.8788C16.2035 14.8599 16.4667 15.1231 16.4667 15.4478C16.4667 15.7725 16.2035 16.0357 15.8788 16.0357H4.12016C3.79545 16.0357 3.53223 15.7725 3.53223 15.4478Z" fill="white"/>
<path fill-rule="evenodd" clip-rule="evenodd" d="M9.99937 7.5035C9.41002 7.5035 8.82865 7.63981 8.30072 7.90177C7.77279 8.16374 7.3126 8.54426 6.95612 9.01358C6.59965 9.48291 6.35656 10.0283 6.24585 10.6072C6.13514 11.186 6.15981 11.7827 6.31794 12.3504C6.40506 12.6632 6.22211 12.9874 5.90931 13.0745C5.59651 13.1617 5.27231 12.9787 5.18519 12.6659C4.97841 11.9235 4.94614 11.1433 5.09092 10.3863C5.23569 9.62932 5.55358 8.91609 6.01974 8.30236C6.4859 7.68862 7.08768 7.19102 7.77806 6.84846C8.46843 6.50589 9.22868 6.32764 9.99937 6.32764C10.7701 6.32764 11.5303 6.50589 12.2207 6.84846C12.9111 7.19102 13.5129 7.68862 13.979 8.30236C14.4452 8.91609 14.7631 9.62932 14.9078 10.3863C15.0526 11.1433 15.0203 11.9235 14.8136 12.6659C14.7264 12.9787 14.4022 13.1617 14.0894 13.0745C13.7766 12.9874 13.5937 12.6632 13.6808 12.3504C13.8389 11.7827 13.8636 11.186 13.7529 10.6072C13.6422 10.0283 13.3991 9.48291 13.0426 9.01358C12.6862 8.54426 12.226 8.16374 11.698 7.90177C11.1701 7.63981 10.5887 7.5035 9.99937 7.5035Z" fill="white"/>
</svg>
