<svg width="20" height="20" viewBox="0 0 20 20" fill="none" xmlns="http://www.w3.org/2000/svg">
<path fill-rule="evenodd" clip-rule="evenodd" d="M16.173 5.74715C15.6859 5.74715 15.2911 6.14199 15.2911 6.62905C15.2911 7.11611 15.6859 7.51095 16.173 7.51095C16.6601 7.51095 17.0549 7.11611 17.0549 6.62905C17.0549 6.14199 16.6601 5.74715 16.173 5.74715ZM14.1152 6.62905C14.1152 5.49258 15.0365 4.57129 16.173 4.57129C17.3095 4.57129 18.2308 5.49258 18.2308 6.62905C18.2308 7.76552 17.3095 8.68681 16.173 8.68681C15.0365 8.68681 14.1152 7.76552 14.1152 6.62905Z" fill="white"/>
<path fill-rule="evenodd" clip-rule="evenodd" d="M9.41144 2.51327C8.94365 2.51327 8.49503 2.69909 8.16425 3.02987C7.83347 3.36065 7.64765 3.80927 7.64765 4.27706V11.5527H7.05971L7.42152 12.0161C6.89078 12.4305 6.50263 13.0002 6.31122 13.6458C6.11981 14.2913 6.1347 14.9805 6.3538 15.6172C6.57291 16.2539 6.9853 16.8063 7.53344 17.1974C8.08157 17.5884 8.73811 17.7986 9.41144 17.7986C10.0848 17.7986 10.7413 17.5884 11.2894 17.1974C11.8376 16.8063 12.25 16.2539 12.4691 15.6172C12.6882 14.9805 12.7031 14.2913 12.5117 13.6458C12.3203 13.0002 11.9321 12.4305 11.4014 12.0161C11.2587 11.9047 11.1752 11.7338 11.1752 11.5527V4.27706C11.1752 3.80927 10.9894 3.36065 10.6586 3.02987C10.3279 2.69909 9.87923 2.51327 9.41144 2.51327ZM6.47178 11.2783V4.27706C6.47178 3.49742 6.7815 2.7497 7.33279 2.19841C7.88408 1.64712 8.6318 1.3374 9.41144 1.3374C10.1911 1.3374 10.9388 1.64712 11.4901 2.19841C12.0414 2.7497 12.3511 3.49742 12.3511 4.27706V11.2783C12.9592 11.8222 13.406 12.5256 13.639 13.3115C13.9 14.1918 13.8797 15.1316 13.5809 15.9998C13.2822 16.868 12.7198 17.6213 11.9724 18.1546C11.2249 18.6878 10.3296 18.9745 9.41144 18.9745C8.49326 18.9745 7.59798 18.6878 6.85052 18.1546C6.10307 17.6213 5.54071 16.868 5.24194 15.9998C4.94316 15.1316 4.92286 14.1918 5.18387 13.3115C5.41687 12.5256 5.86369 11.8222 6.47178 11.2783Z" fill="white"/>
<path fill-rule="evenodd" clip-rule="evenodd" d="M9.41128 13.6842C8.92422 13.6842 8.52938 14.079 8.52938 14.5661C8.52938 15.0531 8.92422 15.448 9.41128 15.448C9.89834 15.448 10.2932 15.0531 10.2932 14.5661C10.2932 14.079 9.89834 13.6842 9.41128 13.6842ZM7.35352 14.5661C7.35352 13.4296 8.27481 12.5083 9.41128 12.5083C10.5477 12.5083 11.469 13.4296 11.469 14.5661C11.469 15.7025 10.5477 16.6238 9.41128 16.6238C8.27481 16.6238 7.35352 15.7025 7.35352 14.5661Z" fill="white"/>
<path fill-rule="evenodd" clip-rule="evenodd" d="M9.48858 6.68018C9.81612 6.68018 10.0816 6.9457 10.0816 7.27325V13.2039C10.0816 13.5315 9.81612 13.797 9.48858 13.797C9.16103 13.797 8.89551 13.5315 8.89551 13.2039V7.27325C8.89551 6.9457 9.16103 6.68018 9.48858 6.68018Z" fill="white"/>
</svg>
