<svg width="16" height="16" viewBox="0 0 16 16" fill="none" xmlns="http://www.w3.org/2000/svg">
    <g clip-path="url(#clip0_38_1399)">
        <path d="M16 8.66658C16.0024 9.7156 15.7969 10.7547 15.3955 11.7239C14.9941 12.693 14.4047 13.5731 13.6613 14.3132C13.3021 14.6747 12.8198 14.8874 12.3107 14.9089C11.8016 14.9304 11.3031 14.7591 10.9147 14.4292L10.2307 13.8379C10.1644 13.7807 10.11 13.7109 10.0707 13.6327C10.0314 13.5544 10.0079 13.4692 10.0015 13.3818C9.98864 13.2054 10.0464 13.0311 10.162 12.8972C10.2193 12.831 10.289 12.7766 10.3673 12.7373C10.4455 12.698 10.5308 12.6745 10.6181 12.6681C10.7945 12.6552 10.9688 12.7129 11.1027 12.8286L11.7873 13.4206C11.9192 13.5331 12.0892 13.5906 12.2623 13.5813C12.4354 13.572 12.5983 13.4966 12.7173 13.3706C13.353 12.727 13.8518 11.9614 14.1834 11.1198C14.515 10.2782 14.6727 9.37814 14.6469 8.47394C14.6211 7.56973 14.4124 6.68012 14.0333 5.85881C13.6542 5.03749 13.1127 4.3015 12.4413 3.69525C11.7405 3.06348 10.9125 2.58916 10.013 2.30421C9.11351 2.01925 8.16342 1.93027 7.22667 2.04325C5.97985 2.18773 4.79922 2.68154 3.82082 3.46777C2.84242 4.25399 2.10606 5.30065 1.69658 6.48714C1.2871 7.67363 1.22117 8.95166 1.50639 10.174C1.7916 11.3963 2.41636 12.5132 3.30866 13.3959C3.42858 13.513 3.58819 13.5806 3.75571 13.5853C3.92324 13.59 4.08638 13.5314 4.21266 13.4212L4.89733 12.8286C4.96361 12.7713 5.04051 12.7277 5.12365 12.7001C5.20679 12.6726 5.29454 12.6617 5.38189 12.6681C5.46923 12.6745 5.55447 12.698 5.63273 12.7373C5.71099 12.7766 5.78074 12.831 5.838 12.8972C5.89525 12.9635 5.9389 13.0404 5.96643 13.1236C5.99397 13.2067 6.00486 13.2945 5.99848 13.3818C5.99211 13.4692 5.96859 13.5544 5.92927 13.6327C5.88995 13.7109 5.83561 13.7807 5.76933 13.8379L5.08533 14.4299C4.70402 14.758 4.21354 14.9311 3.7108 14.915C3.20805 14.899 2.72961 14.6949 2.37 14.3432C1.43398 13.4161 0.741448 12.272 0.353912 11.0128C-0.0336238 9.75361 -0.104164 8.41817 0.148556 7.12513C0.401276 5.83209 0.969434 4.62148 1.80256 3.60084C2.63569 2.5802 3.708 1.78112 4.92423 1.27457C6.14047 0.768032 7.46298 0.569712 8.7743 0.697229C10.0856 0.824747 11.3451 1.27415 12.441 2.00553C13.5369 2.73691 14.4351 3.72762 15.056 4.88965C15.6769 6.05169 16.0011 7.34908 16 8.66658ZM12.034 11.1652C12.1147 11.2035 12.2022 11.2251 12.2914 11.2289C12.3806 11.2326 12.4696 11.2184 12.5532 11.1871C12.6368 11.1558 12.7133 11.108 12.7781 11.0466C12.8429 10.9852 12.8947 10.9114 12.9304 10.8296C12.9661 10.7478 12.985 10.6596 12.9861 10.5703C12.9871 10.4811 12.9701 10.3925 12.9363 10.3099C12.9024 10.2273 12.8523 10.1524 12.7889 10.0895C12.7256 10.0266 12.6502 9.97711 12.5673 9.94392L9.32533 8.51992C9.29264 8.2282 9.16459 7.95542 8.96106 7.7439C8.75752 7.53239 8.48987 7.39395 8.19962 7.35006C7.90938 7.30618 7.61276 7.3593 7.35579 7.50119C7.09882 7.64309 6.89586 7.86581 6.77838 8.13483C6.66091 8.40384 6.6355 8.7041 6.70608 8.98903C6.77667 9.27396 6.93931 9.52763 7.16878 9.7107C7.39824 9.89376 7.68171 9.99598 7.9752 10.0015C8.26869 10.007 8.55581 9.91555 8.792 9.74125L12.034 11.1652Z" fill="white"/>
    </g>
    <defs>
        <clipPath id="clip0_38_1399">
            <rect width="16" height="16" fill="white"/>
        </clipPath>
    </defs>
</svg>
