<svg width="16" height="16" viewBox="0 0 16 16" fill="none" xmlns="http://www.w3.org/2000/svg">
    <path d="M3.33675 16.0038C2.95997 16.0049 2.59683 15.8629 2.32075 15.6065L0.994084 14.3738C-0.32325 13.0572 -0.32325 10.9425 0.97675 9.64316C1.60675 9.01382 2.44408 8.66716 3.33408 8.66716C4.22408 8.66716 5.06142 9.01382 5.69075 9.64316C6.32075 10.2725 6.66742 11.1098 6.66742 12.0005C6.66742 12.8912 6.32075 13.7278 5.69075 14.3572L4.35675 15.6045C4.07142 15.8712 3.70475 16.0045 3.33808 16.0045L3.33675 16.0038ZM3.33342 9.99982C2.79942 9.99982 2.29675 10.2078 1.91875 10.5858C1.54446 10.9612 1.33428 11.4697 1.33428 11.9998C1.33428 12.5299 1.54446 13.0384 1.91875 13.4138L3.22808 14.6298C3.25766 14.6572 3.29646 14.6724 3.33675 14.6724C3.37704 14.6724 3.41585 14.6572 3.44542 14.6298L4.76342 13.3985C5.12475 13.0365 5.33275 12.5345 5.33275 11.9998C5.33275 11.4652 5.12475 10.9632 4.74675 10.5852C4.56144 10.399 4.34106 10.2514 4.09835 10.1509C3.85565 10.0505 3.5961 9.9991 3.33342 9.99982ZM12.6701 7.33716C12.2934 7.33798 11.9303 7.196 11.6541 6.93982L10.3274 5.70716C9.01008 4.39049 9.01008 2.27582 10.3101 0.976488C10.9394 0.347155 11.7768 0.000488281 12.6674 0.000488281C13.5581 0.000488281 14.3941 0.347155 15.0241 0.976488C15.6484 1.60204 15.999 2.44972 15.999 3.33349C15.999 4.21726 15.6484 5.06494 15.0241 5.69049L13.6901 6.93782C13.4048 7.20449 13.0374 7.33782 12.6708 7.33782L12.6701 7.33716ZM12.6668 1.33316C12.1321 1.33316 11.6301 1.54116 11.2521 1.91849C10.8778 2.294 10.6676 2.8026 10.6676 3.33282C10.6676 3.86304 10.8778 4.37164 11.2521 4.74716L12.5608 5.96316C12.5905 5.99042 12.6294 6.00555 12.6698 6.00555C12.7101 6.00555 12.749 5.99042 12.7788 5.96316L14.0968 4.73182C14.8601 3.96782 14.8601 2.69916 14.0808 1.91916C13.8955 1.73283 13.6752 1.5851 13.4325 1.48451C13.1897 1.38393 12.9295 1.33248 12.6668 1.33316ZM16.0001 13.3332C16.0001 11.8625 14.8041 10.6665 13.3334 10.6665H10.0001C9.26475 10.6665 8.66675 10.0685 8.66675 9.33316C8.66675 8.76849 9.02408 8.26382 9.55542 8.07582C9.63798 8.04667 9.71398 8.00154 9.7791 7.94301C9.84422 7.88448 9.89717 7.8137 9.93493 7.73471C9.97269 7.65572 9.99453 7.57006 9.99919 7.48263C10.0038 7.3952 9.99124 7.30771 9.96208 7.22516C9.93293 7.1426 9.8878 7.06659 9.82927 7.00147C9.77075 6.93636 9.69997 6.88341 9.62097 6.84564C9.54198 6.80788 9.45633 6.78605 9.3689 6.78139C9.28147 6.77673 9.19398 6.78934 9.11142 6.81849C8.59176 7.00289 8.1419 7.34358 7.82356 7.79381C7.50522 8.24404 7.33401 8.78175 7.33342 9.33316C7.33342 10.8038 8.52942 11.9998 10.0001 11.9998H13.3334C14.0688 11.9998 14.6668 12.5978 14.6668 13.3332C14.6668 14.0685 14.0688 14.6665 13.3334 14.6665H7.33342C7.15661 14.6665 6.98704 14.7367 6.86201 14.8618C6.73699 14.9868 6.66675 15.1563 6.66675 15.3332C6.66675 15.51 6.73699 15.6795 6.86201 15.8046C6.98704 15.9296 7.15661 15.9998 7.33342 15.9998H13.3334C14.8041 15.9998 16.0001 14.8038 16.0001 13.3332Z" fill="white"/>
</svg>
