<svg width="64" height="64" viewBox="0 0 64 64" fill="none" xmlns="http://www.w3.org/2000/svg">
    <path d="M29.3334 34.6665V18.6665C29.3334 17.1998 30.5334 15.9998 32.0001 15.9998C33.4667 15.9998 34.6667 17.1998 34.6667 18.6665V34.6665C34.6667 36.1332 33.4667 37.3332 32.0001 37.3332C30.5334 37.3332 29.3334 36.1332 29.3334 34.6665ZM32.0001 39.9998C29.7867 39.9998 28.0001 41.7865 28.0001 43.9998C28.0001 46.2132 29.7867 47.9998 32.0001 47.9998C34.2134 47.9998 36.0001 46.2132 36.0001 43.9998C36.0001 41.7865 34.2134 39.9998 32.0001 39.9998ZM62.8801 53.0132C61.0134 56.6132 57.0934 58.6665 52.1867 58.6665H11.8401C6.90674 58.6665 3.0134 56.6132 1.14674 53.0132C-0.746597 49.3865 -0.213263 44.7465 2.48007 40.8532L23.9201 6.93317C25.8134 4.21317 28.8001 2.6665 32.0001 2.6665C35.2001 2.6665 38.1867 4.21317 40.0001 6.85317L61.5467 40.9065C64.2401 44.7998 64.7467 49.4132 62.8534 53.0132H62.8801ZM57.1467 43.8932C57.1467 43.8932 57.0934 43.8398 57.0934 43.7865L35.5734 9.7865C34.8001 8.69317 33.4667 7.99984 32.0001 7.99984C30.5334 7.99984 29.2001 8.69317 28.3734 9.89317L6.90674 43.7865C5.2534 46.1332 4.88007 48.6932 5.84007 50.5332C6.7734 52.3465 8.90674 53.3332 11.8134 53.3332H52.1334C55.0401 53.3332 57.1734 52.3465 58.1067 50.5332C59.0667 48.6932 58.6934 46.1332 57.1201 43.8932H57.1467Z" fill="white"/>
</svg>
