<svg width="16" height="64" viewBox="0 0 16 64" fill="none" xmlns="http://www.w3.org/2000/svg">
    <path d="M8 17L8 47" stroke="white" stroke-opacity="0.2" stroke-linecap="round" stroke-dasharray="2 2"/>
    <g clip-path="url(#clip0_1_3)">
        <path d="M8.00065 4C7.47324 4 6.95766 4.1564 6.51913 4.44941C6.0806 4.74243 5.73881 5.15891 5.53697 5.64618C5.33514 6.13345 5.28233 6.66962 5.38522 7.18691C5.48812 7.70419 5.74209 8.17935 6.11503 8.55229C6.48797 8.92523 6.96313 9.1792 7.48041 9.28209C7.99769 9.38499 8.53387 9.33218 9.02114 9.13035C9.50841 8.92851 9.92489 8.58672 10.2179 8.14819C10.5109 7.70966 10.6673 7.19408 10.6673 6.66667C10.6673 5.95942 10.3864 5.28115 9.88627 4.78105C9.38617 4.28095 8.7079 4 8.00065 4ZM8.00065 8C7.73694 8 7.47916 7.9218 7.25989 7.77529C7.04063 7.62878 6.86973 7.42055 6.76881 7.17691C6.6679 6.93328 6.64149 6.66519 6.69294 6.40655C6.74439 6.14791 6.87137 5.91033 7.05784 5.72386C7.24431 5.53739 7.48189 5.4104 7.74053 5.35895C7.99917 5.30751 8.26726 5.33391 8.5109 5.43483C8.75453 5.53574 8.96277 5.70664 9.10928 5.92591C9.25579 6.14517 9.33399 6.40296 9.33399 6.66667C9.33399 7.02029 9.19351 7.35943 8.94346 7.60948C8.69341 7.85952 8.35427 8 8.00065 8Z" fill="#FF5741"/>
        <path d="M8.00021 15.9999C7.43884 16.0027 6.88495 15.8711 6.38492 15.6159C5.88489 15.3607 5.45327 14.9895 5.12621 14.5332C2.58554 11.0285 1.29688 8.39387 1.29688 6.70187C1.29688 4.92403 2.00312 3.21902 3.26024 1.9619C4.51735 0.704777 6.22237 -0.00146484 8.00021 -0.00146484C9.77804 -0.00146484 11.4831 0.704777 12.7402 1.9619C13.9973 3.21902 14.7035 4.92403 14.7035 6.70187C14.7035 8.39387 13.4149 11.0285 10.8742 14.5332C10.5471 14.9895 10.1155 15.3607 9.6155 15.6159C9.11547 15.8711 8.56158 16.0027 8.00021 15.9999ZM8.00021 1.45387C6.60849 1.45546 5.27422 2.00902 4.29012 2.99312C3.30603 3.97721 2.75246 5.31148 2.75087 6.7032C2.75087 8.0432 4.01287 10.5212 6.30354 13.6805C6.498 13.9484 6.75312 14.1664 7.04802 14.3167C7.34291 14.467 7.66921 14.5454 8.00021 14.5454C8.33121 14.5454 8.6575 14.467 8.9524 14.3167C9.2473 14.1664 9.50241 13.9484 9.69688 13.6805C11.9875 10.5212 13.2495 8.0432 13.2495 6.7032C13.248 5.31148 12.6944 3.97721 11.7103 2.99312C10.7262 2.00902 9.39193 1.45546 8.00021 1.45387Z" fill="#FF5741"/>
    </g>
    <g clip-path="url(#clip1_1_3)">
        <path d="M8.00065 52C7.47324 52 6.95766 52.1564 6.51913 52.4494C6.0806 52.7424 5.73881 53.1589 5.53697 53.6462C5.33514 54.1334 5.28233 54.6696 5.38522 55.1869C5.48812 55.7042 5.74209 56.1793 6.11503 56.5523C6.48797 56.9252 6.96313 57.1792 7.48041 57.2821C7.99769 57.385 8.53387 57.3322 9.02114 57.1303C9.50841 56.9285 9.92489 56.5867 10.2179 56.1482C10.5109 55.7097 10.6673 55.1941 10.6673 54.6667C10.6673 53.9594 10.3864 53.2811 9.88627 52.781C9.38617 52.281 8.7079 52 8.00065 52ZM8.00065 56C7.73694 56 7.47916 55.9218 7.25989 55.7753C7.04063 55.6288 6.86973 55.4205 6.76881 55.1769C6.6679 54.9333 6.64149 54.6652 6.69294 54.4065C6.74439 54.1479 6.87137 53.9103 7.05784 53.7239C7.24431 53.5374 7.48189 53.4104 7.74053 53.359C7.99917 53.3075 8.26726 53.3339 8.5109 53.4348C8.75453 53.5357 8.96277 53.7066 9.10928 53.9259C9.25579 54.1452 9.33399 54.403 9.33399 54.6667C9.33399 55.0203 9.19351 55.3594 8.94346 55.6095C8.69341 55.8595 8.35427 56 8.00065 56Z" fill="#41FF41"/>
        <path d="M8.00021 63.9999C7.43884 64.0027 6.88495 63.8711 6.38492 63.6159C5.88489 63.3607 5.45327 62.9895 5.12621 62.5332C2.58554 59.0285 1.29688 56.3939 1.29688 54.7019C1.29688 52.924 2.00312 51.219 3.26024 49.9619C4.51735 48.7048 6.22237 47.9985 8.00021 47.9985C9.77804 47.9985 11.4831 48.7048 12.7402 49.9619C13.9973 51.219 14.7035 52.924 14.7035 54.7019C14.7035 56.3939 13.4149 59.0285 10.8742 62.5332C10.5471 62.9895 10.1155 63.3607 9.6155 63.6159C9.11547 63.8711 8.56158 64.0027 8.00021 63.9999ZM8.00021 49.4539C6.60849 49.4555 5.27422 50.009 4.29012 50.9931C3.30603 51.9772 2.75246 53.3115 2.75087 54.7032C2.75087 56.0432 4.01287 58.5212 6.30354 61.6805C6.498 61.9484 6.75312 62.1664 7.04802 62.3167C7.34291 62.467 7.66921 62.5454 8.00021 62.5454C8.33121 62.5454 8.6575 62.467 8.9524 62.3167C9.2473 62.1664 9.50241 61.9484 9.69688 61.6805C11.9875 58.5212 13.2495 56.0432 13.2495 54.7032C13.248 53.3115 12.6944 51.9772 11.7103 50.9931C10.7262 50.009 9.39193 49.4555 8.00021 49.4539Z" fill="#41FF41"/>
    </g>
    <defs>
        <clipPath id="clip0_1_3">
            <rect width="16" height="16" fill="white"/>
        </clipPath>
        <clipPath id="clip1_1_3">
            <rect width="16" height="16" fill="white" transform="translate(0 48)"/>
        </clipPath>
    </defs>
</svg>
