<svg width="16" height="16" viewBox="0 0 16 16" fill="none" xmlns="http://www.w3.org/2000/svg">
    <g clip-path="url(#clip0_38_1407)">
        <path d="M9.276 12.9668C9.31 13.0842 9.33333 13.2055 9.33333 13.3335C9.33333 13.5972 9.25513 13.855 9.10863 14.0743C8.96212 14.2935 8.75388 14.4644 8.51024 14.5654C8.26661 14.6663 7.99852 14.6927 7.73988 14.6412C7.48124 14.5898 7.24366 14.4628 7.05719 14.2763C6.87072 14.0899 6.74373 13.8523 6.69229 13.5936C6.64084 13.335 6.66724 13.0669 6.76816 12.8233C6.86908 12.5796 7.03997 12.3714 7.25924 12.2249C7.47851 12.0784 7.73629 12.0002 8 12.0002C8.10933 12.0002 8.214 12.0168 8.316 12.0415L10.846 9.51151C10.9079 9.44962 10.9814 9.40052 11.0623 9.36702C11.1431 9.33352 11.2298 9.31628 11.3173 9.31628C11.4049 9.31628 11.4915 9.33352 11.5724 9.36702C11.6533 9.40052 11.7268 9.44962 11.7887 9.51151C11.8506 9.57341 11.8997 9.64689 11.9332 9.72776C11.9667 9.80863 11.9839 9.89531 11.9839 9.98285C11.9839 10.0704 11.9667 10.1571 11.9332 10.2379C11.8997 10.3188 11.8506 10.3923 11.7887 10.4542L9.27667 12.9668H9.276ZM14 8.07485V4.05151L14.862 4.91351C14.9238 4.97564 14.9972 5.02494 15.0781 5.05858C15.159 5.09222 15.2457 5.10954 15.3333 5.10954C15.4209 5.10954 15.5077 5.09222 15.5886 5.05858C15.6695 5.02494 15.7429 4.97564 15.8047 4.91351C15.8666 4.85165 15.9158 4.77818 15.9493 4.69731C15.9829 4.61643 16.0001 4.52973 16.0001 4.44218C16.0001 4.35462 15.9829 4.26793 15.9493 4.18705C15.9158 4.10617 15.8666 4.0327 15.8047 3.97085L14.1867 2.35218C13.9596 2.12709 13.6528 2.0008 13.333 2.0008C13.0132 2.0008 12.7064 2.12709 12.4793 2.35218L10.862 3.97018C10.737 4.09518 10.6668 4.26473 10.6668 4.44151C10.6668 4.6183 10.737 4.78784 10.862 4.91285C10.987 5.03785 11.1565 5.10808 11.3333 5.10808C11.5101 5.10808 11.6797 5.03785 11.8047 4.91285L12.6667 4.05085V6.84818C11.604 6.06906 10.3618 5.57078 9.05533 5.39951C8.926 5.38285 8.79667 5.38085 8.66667 5.37085V2.05218L9.52867 2.91418C9.59044 2.9763 9.66388 3.0256 9.74477 3.05924C9.82565 3.09288 9.91239 3.1102 10 3.1102C10.0876 3.1102 10.1743 3.09288 10.2552 3.05924C10.3361 3.0256 10.4096 2.9763 10.4713 2.91418C10.5333 2.85232 10.5825 2.77885 10.616 2.69797C10.6495 2.6171 10.6668 2.5304 10.6668 2.44285C10.6668 2.35529 10.6495 2.26859 10.616 2.18772C10.5825 2.10684 10.5333 2.03337 10.4713 1.97151L8.85333 0.352845C8.62623 0.127753 8.31942 0.00146484 7.99967 0.00146484C7.67991 0.00146484 7.3731 0.127753 7.146 0.352845L5.52867 1.97085C5.46677 2.03274 5.41767 2.10622 5.38417 2.1871C5.35068 2.26797 5.33343 2.35464 5.33343 2.44218C5.33343 2.61896 5.40366 2.78851 5.52867 2.91351C5.65367 3.03852 5.82322 3.10874 6 3.10874C6.17678 3.10874 6.34633 3.03852 6.47133 2.91351L7.33333 2.05151V5.36418C5.89139 5.48639 4.5093 5.99615 3.33333 6.83951V4.05151L4.19533 4.91351C4.2571 4.97564 4.33054 5.02494 4.41143 5.05858C4.49232 5.09222 4.57906 5.10954 4.66667 5.10954C4.75427 5.10954 4.84101 5.09222 4.9219 5.05858C5.00279 5.02494 5.07623 4.97564 5.138 4.91351C5.19996 4.85165 5.24912 4.77818 5.28266 4.69731C5.3162 4.61643 5.33347 4.52973 5.33347 4.44218C5.33347 4.35462 5.3162 4.26793 5.28266 4.18705C5.24912 4.10617 5.19996 4.0327 5.138 3.97085L3.52 2.35218C3.2929 2.12709 2.98609 2.0008 2.66633 2.0008C2.34658 2.0008 2.03977 2.12709 1.81267 2.35218L0.195333 3.97151C0.133437 4.03341 0.0843381 4.10689 0.05084 4.18776C0.0173419 4.26863 0.000100668 4.35531 0.000100667 4.44285C0.000100667 4.53038 0.0173419 4.61706 0.05084 4.69793C0.0843381 4.7788 0.133437 4.85228 0.195333 4.91418C0.25723 4.97608 0.330711 5.02517 0.411583 5.05867C0.492454 5.09217 0.579132 5.10941 0.666667 5.10941C0.754201 5.10941 0.840879 5.09217 0.92175 5.05867C1.00262 5.02517 1.0761 4.97608 1.138 4.91418L2 4.05218V8.05285C0.71368 9.51148 0.00269737 11.3887 0 13.3335L0 13.4142C0.0153333 14.8402 1.212 16.0002 2.668 16.0002H4.66667C4.84348 16.0002 5.01305 15.9299 5.13807 15.8049C5.2631 15.6799 5.33333 15.5103 5.33333 15.3335C5.33333 15.1567 5.2631 14.9871 5.13807 14.8621C5.01305 14.7371 4.84348 14.6668 4.66667 14.6668H2.668C2.49255 14.6679 2.31862 14.6342 2.1563 14.5675C1.99398 14.5009 1.84649 14.4028 1.72236 14.2788C1.59823 14.1548 1.49993 14.0074 1.43315 13.8451C1.36638 13.6829 1.33245 13.509 1.33333 13.3335C1.33333 11.6695 1.958 10.0748 3.06533 8.85418C4.718 7.12551 6.936 6.47018 8.88533 6.72418C10.4187 6.92085 11.8387 7.69751 12.8773 8.81551C13.5261 9.51911 14.0187 10.352 14.3227 11.2595C14.5543 11.9454 14.6703 12.6649 14.666 13.3888C14.66 14.0935 14.0607 14.6668 13.3307 14.6668H11.3333C11.1565 14.6668 10.987 14.7371 10.8619 14.8621C10.7369 14.9871 10.6667 15.1567 10.6667 15.3335C10.6667 15.5103 10.7369 15.6799 10.8619 15.8049C10.987 15.9299 11.1565 16.0002 11.3333 16.0002H13.3307C14.7893 16.0002 15.9867 14.8342 15.9993 13.4008C16.005 12.529 15.8656 11.6622 15.5867 10.8362C15.2454 9.82001 14.7059 8.88167 13.9993 8.07551L14 8.07485Z" fill="white"/>
    </g>
    <defs>
        <clipPath id="clip0_38_1407">
            <rect width="16" height="16" fill="white"/>
        </clipPath>
    </defs>
</svg>
