<svg width="32" height="32" viewBox="0 0 32 32" fill="none" xmlns="http://www.w3.org/2000/svg">
    <circle cx="16" cy="16" r="16" fill="url(#paint0_linear_38_247)"/>
    <circle cx="16" cy="16" r="15.5" stroke="white" stroke-opacity="0.5"/>
    <g clip-path="url(#clip0_38_247)">
        <path d="M16 12.6667C14.162 12.6667 12.6667 14.162 12.6667 16C12.6667 17.838 14.162 19.3333 16 19.3333C17.838 19.3333 19.3333 17.838 19.3333 16C19.3333 14.162 17.838 12.6667 16 12.6667ZM16 18C14.8973 18 14 17.1027 14 16C14 14.8973 14.8973 14 16 14C17.1027 14 18 14.8973 18 16C18 17.1027 17.1027 18 16 18ZM23.3333 15.3333H22.6333C22.3193 12.1887 19.8113 9.68 16.6667 9.36667V8.66667C16.6667 8.48986 16.5964 8.32029 16.4714 8.19526C16.3464 8.07024 16.1768 8 16 8C15.8232 8 15.6536 8.07024 15.5286 8.19526C15.4036 8.32029 15.3333 8.48986 15.3333 8.66667V9.36667C12.1887 9.68 9.68 12.1887 9.36667 15.3333H8.66667C8.48986 15.3333 8.32029 15.4036 8.19526 15.5286C8.07024 15.6536 8 15.8232 8 16C8 16.1768 8.07024 16.3464 8.19526 16.4714C8.32029 16.5964 8.48986 16.6667 8.66667 16.6667H9.36667C9.68067 19.8113 12.1887 22.32 15.3333 22.6333V23.3333C15.3333 23.5101 15.4036 23.6797 15.5286 23.8047C15.6536 23.9298 15.8232 24 16 24C16.1768 24 16.3464 23.9298 16.4714 23.8047C16.5964 23.6797 16.6667 23.5101 16.6667 23.3333V22.6333C19.8113 22.3193 22.32 19.8113 22.6333 16.6667H23.3333C23.5101 16.6667 23.6797 16.5964 23.8047 16.4714C23.9298 16.3464 24 16.1768 24 16C24 15.8232 23.9298 15.6536 23.8047 15.5286C23.6797 15.4036 23.5101 15.3333 23.3333 15.3333ZM16 21.3333C13.0593 21.3333 10.6667 18.9407 10.6667 16C10.6667 13.0593 13.0593 10.6667 16 10.6667C18.9407 10.6667 21.3333 13.0593 21.3333 16C21.3333 18.9407 18.9407 21.3333 16 21.3333Z" fill="white"/>
    </g>
    <defs>
        <linearGradient id="paint0_linear_38_247" x1="0" y1="0" x2="22.9155" y2="37.5447" gradientUnits="userSpaceOnUse">
            <stop stop-color="#79E3BD"/>
            <stop offset="1" stop-color="#4878D7"/>
        </linearGradient>
        <clipPath id="clip0_38_247">
            <rect width="16" height="16" fill="white" transform="translate(8 8)"/>
        </clipPath>
    </defs>
</svg>
