<svg width="32" height="32" viewBox="0 0 32 32" fill="none" xmlns="http://www.w3.org/2000/svg">
    <circle cx="16" cy="16" r="16" fill="url(#paint0_linear_38_251)"/>
    <circle cx="16" cy="16" r="15.5" stroke="white" stroke-opacity="0.5"/>
    <g clip-path="url(#clip0_38_251)">
        <path d="M8.32367 13.392L14.8983 17.3367C15.2311 17.5368 15.6121 17.6425 16.0003 17.6425C16.3886 17.6425 16.7696 17.5368 17.1023 17.3367L23.6763 13.392C23.7749 13.3328 23.8565 13.249 23.9131 13.1489C23.9697 13.0488 23.9995 12.9357 23.9995 12.8207C23.9995 12.7057 23.9697 12.5926 23.9131 12.4925C23.8565 12.3924 23.7749 12.3086 23.6763 12.2494L17.1023 8.30402C16.7695 8.10382 16.3884 7.99805 16 7.99805C15.6116 7.99805 15.2305 8.10382 14.8977 8.30402L8.32367 12.2487C8.22511 12.308 8.14355 12.3917 8.08693 12.4918C8.03031 12.5919 8.00055 12.705 8.00055 12.82C8.00055 12.935 8.03031 13.0481 8.08693 13.1482C8.14355 13.2483 8.22511 13.3321 8.32367 13.3914V13.392ZM16.4163 16.1934C16.2906 16.2689 16.1467 16.3089 16 16.3089C15.8533 16.3089 15.7094 16.2689 15.5837 16.1934L13.5003 14.9434L15.9997 13.444L18.4983 14.9434L16.4157 16.1927L16.4163 16.1934ZM19.795 14.166L17.2963 12.6667L19.539 11.3214L22.0377 12.8207L19.795 14.166ZM15.5843 9.44736C15.841 9.29402 16.1597 9.29402 16.4163 9.44736L18.243 10.5434L16.0003 11.8894L13.7577 10.5434L15.5843 9.44736ZM12.4617 11.3214L14.7043 12.6667L12.2057 14.166L9.96301 12.8207L12.4617 11.3214ZM8.09567 15.3934C8.14059 15.3182 8.19992 15.2526 8.27025 15.2003C8.34058 15.1481 8.42053 15.1103 8.50551 15.089C8.5905 15.0678 8.67884 15.0635 8.76547 15.0765C8.8521 15.0895 8.93532 15.1195 9.01034 15.1647L15.5843 19.1094C15.841 19.2627 16.1603 19.2627 16.417 19.1094L22.991 15.1647C23.0661 15.1196 23.1493 15.0898 23.2359 15.0769C23.3225 15.0641 23.4108 15.0684 23.4957 15.0896C23.5806 15.1108 23.6606 15.1486 23.7309 15.2007C23.8012 15.2528 23.8606 15.3183 23.9057 15.3934C23.9507 15.4684 23.9805 15.5516 23.9934 15.6382C24.0063 15.7248 24.002 15.8131 23.9808 15.898C23.9595 15.983 23.9218 16.0629 23.8697 16.1332C23.8175 16.2036 23.7521 16.263 23.677 16.308L17.103 20.2527C16.7702 20.4526 16.3893 20.5582 16.001 20.5582C15.6128 20.5582 15.2318 20.4526 14.899 20.2527L8.32367 16.308C8.2486 16.263 8.18314 16.2036 8.13101 16.1332C8.07889 16.0629 8.04114 15.983 8.01991 15.898C7.99867 15.8131 7.99437 15.7248 8.00726 15.6382C8.02015 15.5516 8.04996 15.4684 8.09501 15.3934H8.09567ZM23.9057 18.2567C23.9507 18.3318 23.9805 18.415 23.9934 18.5016C24.0063 18.5882 24.002 18.6764 23.9808 18.7614C23.9595 18.8463 23.9218 18.9262 23.8697 18.9966C23.8175 19.0669 23.7521 19.1263 23.677 19.1714L17.103 23.116C16.7703 23.3167 16.3892 23.4228 16.0007 23.4228C15.6122 23.4228 15.231 23.3167 14.8983 23.116L8.32367 19.1714C8.2486 19.1263 8.18314 19.0669 8.13102 18.9966C8.0789 18.9262 8.04114 18.8463 8.01991 18.7614C7.99867 18.6764 7.99438 18.5882 8.00726 18.5016C8.02015 18.415 8.04996 18.3318 8.09501 18.2567C8.14005 18.1816 8.19944 18.1162 8.26978 18.064C8.34013 18.0119 8.42005 17.9742 8.50498 17.9529C8.58992 17.9317 8.6782 17.9274 8.7648 17.9403C8.85139 17.9532 8.9346 17.983 9.00967 18.028L15.5837 21.9727C15.8403 22.126 16.1597 22.126 16.4157 21.9727L22.9903 18.028C23.0654 17.983 23.1486 17.9532 23.2352 17.9403C23.3218 17.9274 23.4101 17.9317 23.495 17.9529C23.58 17.9742 23.6599 18.0119 23.7302 18.064C23.8006 18.1162 23.8606 18.1816 23.9057 18.2567Z" fill="white"/>
    </g>
    <defs>
        <linearGradient id="paint0_linear_38_251" x1="0" y1="0" x2="22.9155" y2="37.5447" gradientUnits="userSpaceOnUse">
            <stop stop-color="#79E3BD"/>
            <stop offset="1" stop-color="#4878D7"/>
        </linearGradient>
        <clipPath id="clip0_38_251">
            <rect width="16" height="16" fill="white" transform="translate(8 8)"/>
        </clipPath>
    </defs>
</svg>
