<svg width="17" height="21" viewBox="0 0 17 21" fill="none" xmlns="http://www.w3.org/2000/svg">
    <path d="M15.0783 7.14021L7.12833 1.30688C6.50741 0.852201 5.77269 0.578375 5.00564 0.515766C4.23859 0.453157 3.46919 0.60421 2.78275 0.952178C2.0963 1.30014 1.51965 1.83143 1.11672 2.48712C0.713783 3.14281 0.500322 3.89728 0.5 4.66688V16.3335C0.500137 17.1035 0.713611 17.8583 1.11673 18.5143C1.51985 19.1703 2.09684 19.7018 2.78368 20.0497C3.47052 20.3977 4.24034 20.5485 5.00771 20.4855C5.77507 20.4225 6.50996 20.1481 7.13083 19.6927L15.0808 13.8594C15.6086 13.4724 16.0377 12.9665 16.3335 12.3828C16.6293 11.799 16.7835 11.1538 16.7835 10.4994C16.7835 9.84496 16.6293 9.19975 16.3335 8.616C16.0377 8.03225 15.6086 7.52638 15.0808 7.13938L15.0783 7.14021ZM14.0917 12.5152L6.14167 18.3485C5.76918 18.6207 5.32864 18.7845 4.86881 18.8219C4.40898 18.8592 3.9478 18.7685 3.53631 18.5599C3.12482 18.3513 2.77907 18.0329 2.53734 17.64C2.2956 17.247 2.16731 16.7949 2.16667 16.3335V4.66688C2.16204 4.20467 2.28791 3.75053 2.52981 3.35665C2.77172 2.96277 3.11983 2.64512 3.53417 2.44021C3.88658 2.26096 4.27629 2.16731 4.67167 2.16688C5.20158 2.1689 5.71685 2.34095 6.14167 2.65771L14.0917 8.49105C14.4079 8.72329 14.6651 9.02672 14.8423 9.37677C15.0195 9.72682 15.1119 10.1137 15.1119 10.506C15.1119 10.8984 15.0195 11.2853 14.8423 11.6353C14.6651 11.9854 14.4079 12.2888 14.0917 12.521V12.5152Z" fill="white"/>
</svg>
