<svg width="32" height="32" viewBox="0 0 32 32" fill="none" xmlns="http://www.w3.org/2000/svg">
<g clip-path="url(#clip0_120_1501)">
<path d="M14.2518 32.0001C13.6829 31.9999 13.1223 31.8643 12.6163 31.6045C12.1102 31.3447 11.6733 30.9682 11.3416 30.506C11.0099 30.0439 10.793 29.5095 10.7087 28.9469C10.6245 28.3844 10.6753 27.8098 10.8571 27.2708L13.4438 20.0001H8.21045L6.77045 22.1948C6.40697 22.7502 5.91069 23.2062 5.32656 23.5214C4.74242 23.8366 4.08888 24.0012 3.42512 24.0001C2.87684 24 2.33669 23.8677 1.85049 23.6142C1.3643 23.3608 0.946432 22.9938 0.632351 22.5444C0.318269 22.095 0.11725 21.5765 0.0463549 21.0328C-0.0245398 20.4891 0.0367832 19.9364 0.225119 19.4215L1.46645 16.0001L0.211786 12.5868C0.0229992 12.0728 -0.0390934 11.5208 0.0307693 10.9777C0.100632 10.4346 0.300391 9.91632 0.613119 9.4668C0.984649 8.99211 1.46519 8.61404 2.01398 8.36465C2.56277 8.11527 3.16362 8.00193 3.76555 8.03425C4.36748 8.06657 4.95273 8.2436 5.47167 8.55032C5.9906 8.85703 6.42789 9.28439 6.74645 9.79614L8.20645 12.0001H13.4438L10.8625 4.7508C10.6777 4.20911 10.6247 3.63116 10.7079 3.0649C10.7912 2.49865 11.0083 1.9604 11.3411 1.4948C11.7376 0.991205 12.2538 0.594754 12.8426 0.341523C13.4314 0.0882929 14.0742 -0.0136775 14.7125 0.0448906C15.3508 0.103459 15.9643 0.320706 16.4972 0.676865C17.0301 1.03302 17.4655 1.51679 17.7638 2.08414L23.4398 12.0001H27.8571C28.8214 11.988 29.7593 12.3152 30.5068 12.9245C31.2543 13.5339 31.7639 14.3865 31.9465 15.3335C32.0434 15.9073 32.0141 16.4953 31.8604 17.0566C31.7067 17.6178 31.4324 18.1388 31.0566 18.5831C30.6808 19.0275 30.2126 19.3844 29.6847 19.6292C29.1567 19.8739 28.5817 20.0005 27.9998 20.0001H23.4398L17.7505 29.9388C17.4056 30.5644 16.8989 31.0859 16.2833 31.4485C15.6678 31.8111 14.9662 32.0017 14.2518 32.0001ZM7.49045 17.3335H15.3331C15.546 17.3353 15.7553 17.3878 15.9439 17.4865C16.1325 17.5853 16.2948 17.7275 16.4175 17.9014C16.5402 18.0753 16.6198 18.276 16.6497 18.4867C16.6795 18.6975 16.6587 18.9123 16.5891 19.1135L13.3758 28.1441C13.3329 28.2796 13.3226 28.4233 13.3457 28.5635C13.3689 28.7036 13.4249 28.8364 13.5091 28.9508C13.6436 29.084 13.8077 29.1836 13.988 29.2413C14.1683 29.299 14.3597 29.3132 14.5466 29.2828C14.7334 29.2523 14.9104 29.1781 15.0631 29.0662C15.2158 28.9543 15.3399 28.8078 15.4251 28.6388L21.5091 18.0001C21.6264 17.7971 21.7951 17.6285 21.9983 17.5114C22.2015 17.3944 22.432 17.333 22.6665 17.3335H27.9998C28.1947 17.3336 28.3872 17.2909 28.5639 17.2085C28.7405 17.1262 28.8969 17.0061 29.0222 16.8567C29.1474 16.7073 29.2383 16.5323 29.2886 16.344C29.3389 16.1557 29.3472 15.9587 29.3131 15.7668C29.2341 15.4439 29.0462 15.1581 28.7809 14.9577C28.5156 14.7573 28.1893 14.6545 27.8571 14.6668H22.6665C22.432 14.6673 22.2015 14.6059 21.9983 14.4888C21.7951 14.3718 21.6264 14.2032 21.5091 14.0001L15.4358 3.38547C15.3548 3.2109 15.2327 3.05854 15.0801 2.9414C14.9274 2.82426 14.7486 2.74583 14.559 2.71281C14.3694 2.6798 14.1747 2.69317 13.9914 2.7518C13.8081 2.81043 13.6417 2.91256 13.5065 3.04947C13.4212 3.16755 13.3654 3.30434 13.3438 3.4484C13.3223 3.59246 13.3355 3.73958 13.3825 3.87747L16.5825 12.8868C16.6519 13.0874 16.6727 13.3017 16.6432 13.5119C16.6138 13.7222 16.5348 13.9224 16.4128 14.0962C16.2908 14.27 16.1294 14.4123 15.9417 14.5115C15.754 14.6107 15.5454 14.6639 15.3331 14.6668H7.49045C7.27018 14.6668 7.05333 14.6123 6.85929 14.5081C6.66524 14.4038 6.50004 14.2531 6.37845 14.0695L4.52112 11.2695C4.21712 10.7081 3.14245 10.4201 2.80112 10.9895C2.7314 11.0867 2.68698 11.1998 2.67185 11.3185C2.65672 11.4372 2.67136 11.5578 2.71445 11.6695L4.14379 15.5441C4.25294 15.8411 4.25294 16.1672 4.14379 16.4641L2.72245 20.3441C2.68282 20.4558 2.67052 20.5753 2.68658 20.6926C2.70264 20.81 2.74659 20.9218 2.81475 21.0187C2.88291 21.1156 2.97329 21.1947 3.07833 21.2495C3.18336 21.3043 3.3 21.3331 3.41845 21.3335C3.63989 21.3336 3.85786 21.2786 4.0527 21.1733C4.24754 21.0681 4.41311 20.916 4.53445 20.7308L6.36912 17.9308C6.49158 17.7458 6.65826 17.5943 6.85406 17.49C7.04987 17.3857 7.26861 17.3319 7.49045 17.3335Z" fill="white"/>
</g>
<defs>
<clipPath id="clip0_120_1501">
<rect width="32" height="32" fill="white"/>
</clipPath>
</defs>
</svg>
