<svg width="32" height="32" viewBox="0 0 32 32" fill="none" xmlns="http://www.w3.org/2000/svg">
<path d="M26.3777 16.1052C26.142 15.2695 25.8953 14.437 25.6376 13.6078C24.8243 11.3655 24.2748 9.036 24.0003 6.6665C24.0003 6.31288 24.1408 5.97374 24.3908 5.7237C24.6409 5.47365 24.98 5.33317 25.3336 5.33317C25.6873 5.33317 26.0264 5.47365 26.2765 5.7237C26.5265 5.97374 26.667 6.31288 26.667 6.6665C26.667 7.02013 26.8075 7.35926 27.0575 7.60931C27.3076 7.85936 27.6467 7.99984 28.0003 7.99984C28.3539 7.99984 28.6931 7.85936 28.9431 7.60931C29.1932 7.35926 29.3336 7.02013 29.3336 6.6665C29.3336 5.60564 28.9122 4.58822 28.1621 3.83808C27.4119 3.08793 26.3945 2.6665 25.3336 2.6665C24.2728 2.6665 23.2554 3.08793 22.5052 3.83808C21.7551 4.58822 21.3336 5.60564 21.3336 6.6665C21.3667 7.68463 21.5093 8.69625 21.759 9.68384L15.359 14.6665L7.96165 9.33317H12.0003C12.3539 9.33317 12.6931 9.19269 12.9431 8.94265C13.1932 8.6926 13.3336 8.35346 13.3336 7.99984C13.3336 7.64622 13.1932 7.30708 12.9431 7.05703C12.6931 6.80698 12.3539 6.6665 12.0003 6.6665H7.96165C7.40774 6.66634 6.86796 6.84137 6.41956 7.16657C5.97115 7.49176 5.63709 7.95045 5.46517 8.47701C5.29325 9.00356 5.29229 9.57101 5.46241 10.0981C5.63253 10.6253 5.96502 11.0851 6.41231 11.4118L13.1736 16.3612L11.2563 17.8532C10.0654 16.7319 8.50073 16.0924 6.86534 16.0585C5.22995 16.0245 3.64014 16.5986 2.40373 17.6696C1.16733 18.7406 0.372274 20.2322 0.172507 21.8557C-0.0272587 23.4792 0.382474 25.1191 1.32237 26.4578C2.26228 27.7966 3.66548 28.7389 5.26031 29.1025C6.85514 29.466 8.52814 29.2249 9.95539 28.4258C11.3826 27.6267 12.4626 26.3264 12.9862 24.7767C13.5098 23.227 13.4398 21.5382 12.7896 20.0372L22.5083 12.4785C22.6963 13.1132 23.4776 15.6572 23.6496 16.2425C22.0559 16.6586 20.673 17.6506 19.7681 19.0269C18.8631 20.4032 18.5004 22.0661 18.75 23.6942C18.9996 25.3223 19.8438 26.8001 21.1194 27.8421C22.3951 28.8841 24.0117 29.4163 25.6569 29.3359C27.302 29.2555 28.859 28.5682 30.027 27.4068C31.1949 26.2453 31.891 24.6922 31.9806 23.0475C32.0702 21.4028 31.5471 19.7833 30.5123 18.5018C29.4774 17.2203 28.0043 16.3679 26.3777 16.1092V16.1052ZM6.66698 26.6665C5.87586 26.6665 5.1025 26.4319 4.4447 25.9924C3.7869 25.5529 3.27421 24.9281 2.97146 24.1972C2.66871 23.4663 2.5895 22.6621 2.74384 21.8861C2.89818 21.1102 3.27914 20.3975 3.83855 19.8381C4.39796 19.2787 5.1107 18.8977 5.88662 18.7434C6.66254 18.589 7.46681 18.6682 8.19772 18.971C8.92862 19.2737 9.55333 19.7864 9.99286 20.4442C10.4324 21.102 10.667 21.8754 10.667 22.6665C10.667 23.7274 10.2456 24.7448 9.49541 25.4949C8.74526 26.2451 7.72785 26.6665 6.66698 26.6665ZM25.3336 26.6665C24.5425 26.6665 23.7692 26.4319 23.1114 25.9924C22.4536 25.5529 21.9409 24.9281 21.6381 24.1972C21.3354 23.4663 21.2562 22.6621 21.4105 21.8861C21.5648 21.1102 21.9458 20.3975 22.5052 19.8381C23.0646 19.2787 23.7774 18.8977 24.5533 18.7434C25.3292 18.589 26.1335 18.6682 26.8644 18.971C27.5953 19.2737 28.22 19.7864 28.6595 20.4442C29.0991 21.102 29.3336 21.8754 29.3336 22.6665C29.3336 23.7274 28.9122 24.7448 28.1621 25.4949C27.4119 26.2451 26.3945 26.6665 25.3336 26.6665Z" fill="white"/>
</svg>
