<svg width="32" height="32" viewBox="0 0 32 32" fill="none" xmlns="http://www.w3.org/2000/svg">
<g clip-path="url(#clip0_120_1480)">
<path d="M27.6533 13.7492L21.92 5.52117C21.3055 4.63954 20.487 3.91953 19.5342 3.42248C18.5815 2.92542 17.5226 2.66607 16.448 2.6665H11.3333C9.98137 2.67108 8.66242 3.08465 7.54989 3.85283C6.43736 4.62102 5.5833 5.70787 5.1 6.9705L2.33733 14.2558C1.61752 14.7446 1.02821 15.402 0.620803 16.1708C0.213397 16.9396 0.000267174 17.7964 0 18.6665L0 20.6665C0.00109447 21.4346 0.266897 22.1789 0.752628 22.7739C1.23836 23.3689 1.91433 23.7783 2.66667 23.9332V24.6665C2.66667 25.9042 3.15833 27.0912 4.0335 27.9663C4.90867 28.8415 6.09566 29.3332 7.33333 29.3332C8.57101 29.3332 9.758 28.8415 10.6332 27.9663C11.5083 27.0912 12 25.9042 12 24.6665V23.9998H20V24.6665C20 25.9042 20.4917 27.0912 21.3668 27.9663C22.242 28.8415 23.429 29.3332 24.6667 29.3332C25.9043 29.3332 27.0913 28.8415 27.9665 27.9663C28.8417 27.0912 29.3333 25.9042 29.3333 24.6665V23.9332C30.0857 23.7783 30.7616 23.3689 31.2474 22.7739C31.7331 22.1789 31.9989 21.4346 32 20.6665V19.9998C31.9981 18.6393 31.5808 17.3118 30.8041 16.1948C30.0273 15.0778 28.9281 14.2246 27.6533 13.7492ZM19.7333 7.04517L24.112 13.3332H14.6667V5.33317H16.448C17.0931 5.33247 17.7287 5.4878 18.3008 5.78591C18.8729 6.08401 19.3644 6.51605 19.7333 7.04517ZM7.6 7.91584C7.88947 7.15922 8.40084 6.50775 9.06706 6.04686C9.73328 5.58598 10.5232 5.33721 11.3333 5.33317H12V13.3332H5.53867L7.6 7.91584ZM9.33333 24.6665C9.33333 25.1969 9.12262 25.7056 8.74755 26.0807C8.37247 26.4558 7.86377 26.6665 7.33333 26.6665C6.8029 26.6665 6.29419 26.4558 5.91912 26.0807C5.54405 25.7056 5.33333 25.1969 5.33333 24.6665V23.9998H9.33333V24.6665ZM24.6667 26.6665C24.1362 26.6665 23.6275 26.4558 23.2525 26.0807C22.8774 25.7056 22.6667 25.1969 22.6667 24.6665V23.9998H26.6667V24.6665C26.6667 25.1969 26.456 25.7056 26.0809 26.0807C25.7058 26.4558 25.1971 26.6665 24.6667 26.6665ZM29.3333 20.6665C29.3333 20.8433 29.2631 21.0129 29.1381 21.1379C29.013 21.2629 28.8435 21.3332 28.6667 21.3332H3.33333C3.15652 21.3332 2.98695 21.2629 2.86193 21.1379C2.7369 21.0129 2.66667 20.8433 2.66667 20.6665V18.6665C2.66667 17.9593 2.94762 17.281 3.44772 16.7809C3.94781 16.2808 4.62609 15.9998 5.33333 15.9998H25.3333C26.3942 15.9998 27.4116 16.4213 28.1618 17.1714C28.9119 17.9216 29.3333 18.939 29.3333 19.9998V20.6665Z" fill="white"/>
</g>
<defs>
<clipPath id="clip0_120_1480">
<rect width="32" height="32" fill="white"/>
</clipPath>
</defs>
</svg>
