<svg width="32" height="32" viewBox="0 0 32 32" fill="none" xmlns="http://www.w3.org/2000/svg">
<g clip-path="url(#clip0_120_1473)">
<path d="M25.3333 14.6667C25.066 14.6672 24.7988 14.6832 24.5333 14.7147L23.724 12.288C24.3831 12.1724 25.0474 12.0892 25.7147 12.0387C26.356 13.404 29.212 14.0573 29.3333 12V9.33334C29.2 7.23467 26.276 7.956 25.6707 9.368C24.7668 9.42919 23.8674 9.5445 22.9773 9.71334L22.872 9.73467L22.176 7.64667C21.8231 6.58426 21.1444 5.66008 20.2363 5.00544C19.3281 4.35079 18.2368 3.99899 17.1173 4H14.6667C14.313 4 13.9739 4.14048 13.7239 4.39053C13.4738 4.64057 13.3333 4.97971 13.3333 5.33334C13.3333 5.68696 13.4738 6.0261 13.7239 6.27614C13.9739 6.52619 14.313 6.66667 14.6667 6.66667H17.1173C17.6777 6.66597 18.224 6.84182 18.6788 7.16924C19.1335 7.49666 19.4736 7.95902 19.6507 8.49067L20.388 10.7027C19.7878 11.0615 19.2373 11.4977 18.7507 12H11.7667C11.4912 11.2209 10.9812 10.5462 10.3067 10.0687C9.63222 9.59116 8.8264 9.33428 8 9.33334H4C3.64638 9.33334 3.30724 9.47381 3.05719 9.72386C2.80714 9.97391 2.66667 10.313 2.66667 10.6667C2.66667 11.0203 2.80714 11.3594 3.05719 11.6095C3.30724 11.8595 3.64638 12 4 12H8C8.24833 11.9972 8.49234 12.0651 8.70361 12.1956C8.91488 12.3261 9.08471 12.514 9.19333 12.7373C9.27516 12.9016 9.32279 13.0808 9.33333 13.264C9.30883 13.5697 9.21782 13.8664 9.06667 14.1333L8.48 14.9147C7.48866 14.6415 6.44773 14.6001 5.43783 14.7938C4.42794 14.9875 3.47618 15.411 2.65626 16.0317C1.83635 16.6523 1.17029 17.4533 0.709668 18.3726C0.249044 19.292 0.00621978 20.3051 0 21.3333C0.152 29.5507 11.9547 30.3507 13.2627 22.3013C14.191 21.9408 15.0005 21.3286 15.6 20.5333L20.2013 14.4C20.5324 14.0235 20.886 13.6673 21.26 13.3333L22 15.56C20.7442 16.3035 19.7662 17.4375 19.2151 18.7889C18.6641 20.1402 18.5702 21.6347 18.9479 23.0444C19.3257 24.4541 20.1542 25.7014 21.3071 26.5962C22.46 27.491 23.874 27.984 25.3333 28C34.144 27.72 34.1413 14.9453 25.3333 14.6667ZM6.66667 25.3333C5.6058 25.3333 4.58839 24.9119 3.83824 24.1618C3.08809 23.4116 2.66667 22.3942 2.66667 21.3333C2.66667 20.2725 3.08809 19.2551 3.83824 18.5049C4.58839 17.7548 5.6058 17.3333 6.66667 17.3333L5.86667 18.4C5.56953 18.7962 5.38858 19.2673 5.34411 19.7605C5.29963 20.2538 5.39339 20.7496 5.61486 21.1926C5.83634 21.6355 6.17678 22.008 6.59805 22.2684C7.01932 22.5288 7.50477 22.6667 8 22.6667H10.4373C10.1616 23.4464 9.65101 24.1216 8.97573 24.5992C8.30046 25.0767 7.49375 25.3332 6.66667 25.3333ZM13.4667 18.9333C13.2176 19.2638 12.8953 19.532 12.5252 19.7171C12.1551 19.9021 11.7471 19.999 11.3333 20H8L11.2 15.7333C11.4441 15.4087 11.6378 15.0491 11.7747 14.6667H16.6667L13.4667 18.9333ZM25.3333 25.3333C24.5057 25.3221 23.7017 25.0555 23.0313 24.57C22.361 24.0845 21.8569 23.4038 21.5881 22.6209C21.3193 21.8381 21.2989 20.9913 21.5297 20.1964C21.7605 19.4015 22.2311 18.6972 22.8773 18.18L24.0693 21.7547C24.1247 21.921 24.2122 22.0748 24.327 22.2073C24.4418 22.3398 24.5815 22.4484 24.7383 22.5269C24.895 22.6054 25.0657 22.6523 25.2405 22.6648C25.4154 22.6774 25.591 22.6553 25.7573 22.6C25.9237 22.5447 26.0775 22.4571 26.21 22.3423C26.3425 22.2276 26.4511 22.0878 26.5296 21.9311C26.6081 21.7743 26.6549 21.6037 26.6675 21.4288C26.68 21.254 26.658 21.0783 26.6027 20.912L25.4053 17.3333C26.4662 17.3429 27.4798 17.7735 28.2232 18.5304C28.9666 19.2873 29.3789 20.3085 29.3693 21.3693C29.3598 22.4302 28.9292 23.4438 28.1723 24.1872C27.4154 24.9306 26.3942 25.3429 25.3333 25.3333Z" fill="white"/>
</g>
<defs>
<clipPath id="clip0_120_1473">
<rect width="32" height="32" fill="white"/>
</clipPath>
</defs>
</svg>
