<svg width="38" height="37" viewBox="0 0 38 37" fill="none" xmlns="http://www.w3.org/2000/svg">
<path d="M16.5254 1.61076C17.717 -0.127961 20.283 -0.127958 21.4746 1.61076L26.1557 8.441C26.5458 9.01019 27.1202 9.42751 27.782 9.62262L35.7245 11.9639C37.7464 12.5599 38.5393 15.0003 37.2539 16.6709L32.2045 23.2335C31.7837 23.7804 31.5643 24.4556 31.5833 25.1454L31.8109 33.4227C31.8689 35.5297 29.7929 37.038 27.8069 36.3317L20.0051 33.5574C19.355 33.3262 18.645 33.3262 17.9949 33.5574L10.1931 36.3317C8.20704 37.038 6.13112 35.5297 6.18907 33.4227L6.41672 25.1454C6.43569 24.4556 6.2163 23.7804 5.79551 23.2335L0.746094 16.6709C-0.539294 15.0003 0.253643 12.5599 2.27549 11.9639L10.218 9.62262C10.8798 9.42751 11.4542 9.01019 11.8443 8.441L16.5254 1.61076Z" fill="url(#paint0_linear_71_2718)"/>
<defs>
<linearGradient id="paint0_linear_71_2718" x1="-3" y1="-2" x2="28.5088" y2="49.624" gradientUnits="userSpaceOnUse">
<stop stop-color="#79E3BD"/>
<stop offset="1" stop-color="#4878D7"/>
</linearGradient>
</defs>
</svg>
