<svg width="32" height="32" viewBox="0 0 32 32" fill="none" xmlns="http://www.w3.org/2000/svg">
<g clip-path="url(#clip0_120_1487)">
<path d="M26.6533 19.9999H1.33333C0.979711 19.9999 0.640573 20.1404 0.390524 20.3905C0.140476 20.6405 0 20.9797 0 21.3333C0 21.6869 0.140476 22.026 0.390524 22.2761C0.640573 22.5261 0.979711 22.6666 1.33333 22.6666H26.6533C27.4907 22.6681 28.3166 22.4724 29.0643 22.0953C29.812 21.7183 30.4603 21.1705 30.9569 20.4963C31.4535 19.822 31.7844 19.0404 31.9228 18.2145C32.0611 17.3887 32.0031 16.5419 31.7533 15.7426C30.5743 11.9438 28.2075 8.62343 25.0011 6.2697C21.7946 3.91598 17.9176 2.65306 13.94 2.66661H1.33333C0.979711 2.66661 0.640573 2.80709 0.390524 3.05714C0.140476 3.30718 0 3.64632 0 3.99995C0 4.35357 0.140476 4.69271 0.390524 4.94275C0.640573 5.1928 0.979711 5.33328 1.33333 5.33328H5.33333V9.33328H1.33333C0.979711 9.33328 0.640573 9.47375 0.390524 9.7238C0.140476 9.97385 0 10.313 0 10.6666C0 11.0202 0.140476 11.3594 0.390524 11.6094C0.640573 11.8595 0.979711 11.9999 1.33333 11.9999H26.9507C27.9393 13.3846 28.7017 14.9174 29.2093 16.5413C29.3352 16.9388 29.3645 17.3605 29.295 17.7716C29.2254 18.1827 29.0589 18.5713 28.8093 18.9053C28.5622 19.2453 28.2379 19.5219 27.8631 19.7122C27.4883 19.9025 27.0737 20.0011 26.6533 19.9999ZM12 9.33328H8V5.33328H12V9.33328ZM14.6667 9.33328V5.36261C18.3165 5.51512 21.8031 6.91692 24.5427 9.33328H14.6667ZM30.6667 26.6666H1.33333C0.979711 26.6666 0.640573 26.8071 0.390524 27.0571C0.140476 27.3072 0 27.6463 0 27.9999C0 28.3536 0.140476 28.6927 0.390524 28.9428C0.640573 29.1928 0.979711 29.3333 1.33333 29.3333H30.6667C31.0203 29.3333 31.3594 29.1928 31.6095 28.9428C31.8595 28.6927 32 28.3536 32 27.9999C32 27.6463 31.8595 27.3072 31.6095 27.0571C31.3594 26.8071 31.0203 26.6666 30.6667 26.6666Z" fill="white"/>
</g>
<defs>
<clipPath id="clip0_120_1487">
<rect width="32" height="32" fill="white"/>
</clipPath>
</defs>
</svg>
