<svg width="32" height="32" viewBox="0 0 32 32" fill="none" xmlns="http://www.w3.org/2000/svg">
<g clip-path="url(#clip0_120_1459)">
<path d="M13.3332 3.33333C13.3332 2.44928 13.6844 1.60143 14.3095 0.976311C14.9346 0.351189 15.7824 0 16.6665 0C17.5506 0 18.3984 0.351189 19.0235 0.976311C19.6486 1.60143 19.9998 2.44928 19.9998 3.33333C19.9998 4.21739 19.6486 5.06524 19.0235 5.69036C18.3984 6.31548 17.5506 6.66667 16.6665 6.66667C15.7824 6.66667 14.9346 6.31548 14.3095 5.69036C13.6844 5.06524 13.3332 4.21739 13.3332 3.33333ZM27.8598 18.3253C27.7816 18.4821 27.6733 18.6219 27.541 18.7368C27.4087 18.8517 27.2551 18.9393 27.089 18.9948C26.9228 19.0503 26.7473 19.0725 26.5725 19.0601C26.3978 19.0477 26.2272 19.001 26.0705 18.9227L22.2812 17.028C21.4083 16.5918 20.6717 15.9245 20.1518 15.0987L19.4932 14.0533L17.6158 21.1147L19.3092 22.076C19.9233 22.4259 20.434 22.9319 20.7895 23.5429C21.1449 24.1538 21.3325 24.8479 21.3332 25.5547V30.6693C21.3332 31.023 21.1927 31.3621 20.9426 31.6121C20.6926 31.8622 20.3535 32.0027 19.9998 32.0027C19.6462 32.0027 19.3071 31.8622 19.057 31.6121C18.807 31.3621 18.6665 31.023 18.6665 30.6693V25.5547C18.6665 25.076 18.4078 24.632 17.9918 24.3947L12.6892 21.384C11.941 20.9547 11.3507 20.2964 11.0052 19.5061C10.6598 18.7158 10.5775 17.8353 10.7705 16.9947L12.1385 11.148C11.8626 11.2487 11.5924 11.3644 11.3292 11.4947L8.53317 12.8933C8.3638 12.9775 8.21442 13.097 8.09506 13.2437C7.9757 13.3905 7.88913 13.561 7.84117 13.744L6.79717 17.6787C6.69402 18.0062 6.46857 18.2815 6.1677 18.4471C5.86683 18.6127 5.51371 18.6559 5.18177 18.5678C4.84983 18.4797 4.56462 18.2671 4.38546 17.9741C4.2063 17.6811 4.14698 17.3303 4.21983 16.9947L5.26383 13.06C5.40946 12.5115 5.67012 12.0003 6.02851 11.5603C6.38691 11.1203 6.83482 10.7616 7.3425 10.508L10.1372 9.10933C11.5944 8.3834 13.1998 8.00463 14.8278 8.00267H15.9998C18.6745 8.00267 20.3638 10.4413 20.4358 10.5453L22.4092 13.68C22.6678 14.0933 23.0358 14.4267 23.4718 14.644L27.2625 16.54C27.4192 16.6183 27.5588 16.7268 27.6736 16.8591C27.7883 16.9914 27.8758 17.145 27.9312 17.3112C27.9865 17.4774 28.0086 17.6528 27.9961 17.8275C27.9837 18.0022 27.9369 18.1727 27.8585 18.3293L27.8598 18.3253ZM15.2758 19.7827L17.4985 11.2907C17.1052 10.9733 16.5812 10.668 15.9998 10.668H14.9892L13.3665 17.6013C13.2332 18.172 13.4958 18.7733 14.0065 19.064L15.2745 19.784L15.2758 19.7827ZM12.2545 23.8213C12.0789 23.709 11.8788 23.6405 11.6712 23.6215C11.4636 23.6026 11.2544 23.6337 11.0613 23.7124C10.8682 23.791 10.6968 23.9149 10.5615 24.0735C10.4263 24.2321 10.331 24.4209 10.2838 24.624L10.0798 25.5053L7.93317 30.108C7.79497 30.4258 7.7862 30.785 7.90872 31.1091C8.03124 31.4333 8.27539 31.6968 8.58923 31.8438C8.90308 31.9907 9.26186 32.0094 9.58929 31.8959C9.91671 31.7824 10.1869 31.5457 10.3425 31.236L12.5478 26.5507L12.8518 25.2267C12.9136 24.959 12.889 24.6787 12.7814 24.4259C12.6738 24.1732 12.4889 23.961 12.2532 23.82L12.2545 23.8213Z" fill="white"/>
</g>
<defs>
<clipPath id="clip0_120_1459">
<rect width="32" height="32" fill="white"/>
</clipPath>
</defs>
</svg>
