<svg width="33" height="33" viewBox="0 0 33 33" fill="none" xmlns="http://www.w3.org/2000/svg">
    <g clip-path="url(#clip0_114_1286)">
        <path d="M32.7637 16.834C32.7637 7.9975 25.6002 0.833984 16.7637 0.833984C7.92719 0.833984 0.763672 7.9975 0.763672 16.834C0.763672 24.3373 5.92975 30.6337 12.8987 32.3629V21.7236H9.59951V16.834H12.8987V14.7271C12.8987 9.28135 15.3634 6.75718 20.7099 6.75718C21.7237 6.75718 23.4728 6.95622 24.1883 7.15462V11.5866C23.8107 11.5469 23.1547 11.5271 22.34 11.5271C19.7166 11.5271 18.7029 12.521 18.7029 15.1047V16.834H23.9291L23.0312 21.7236H18.7029V32.7169C26.6242 31.7601 32.7637 25.0145 32.7637 16.834Z" fill="#0866FF"/>
    </g>
    <defs>
        <clipPath id="clip0_114_1286">
            <rect width="32" height="32" fill="white" transform="translate(0.763672 0.5)"/>
        </clipPath>
    </defs>
</svg>
