<svg width="32" height="32" viewBox="0 0 32 32" fill="none" xmlns="http://www.w3.org/2000/svg">
    <rect x="0.5" y="0.5" width="31" height="31" rx="7.5" stroke="url(#paint0_linear_32_2670)"/>
    <g clip-path="url(#clip0_32_2670)">
        <path d="M15.1264 24.0001C14.842 24 14.5617 23.9321 14.3086 23.8022C14.0556 23.6723 13.8371 23.4841 13.6713 23.253C13.5054 23.022 13.397 22.7547 13.3548 22.4735C13.3127 22.1922 13.3382 21.9049 13.429 21.6354L14.7224 18.0001H12.1057L11.3857 19.0974C11.204 19.3751 10.9558 19.6031 10.6638 19.7607C10.3717 19.9183 10.0449 20.0006 9.71305 20.0001C9.43891 20 9.16883 19.9338 8.92574 19.8071C8.68264 19.6804 8.4737 19.4969 8.31666 19.2722C8.15962 19.0475 8.05911 18.7882 8.02367 18.5164C7.98822 18.2446 8.01888 17.9682 8.11305 17.7107L8.73371 16.0001L8.10638 14.2934C8.01199 14.0364 7.98094 13.7604 8.01587 13.4889C8.0508 13.2173 8.15068 12.9582 8.30705 12.7334C8.49281 12.4961 8.73308 12.307 9.00748 12.1823C9.28187 12.0576 9.5823 12.001 9.88326 12.0171C10.1842 12.0333 10.4769 12.1218 10.7363 12.2752C10.9958 12.4285 11.2144 12.6422 11.3737 12.8981L12.1037 14.0001H14.7224L13.4317 10.3754C13.3393 10.1046 13.3128 9.81558 13.3545 9.53245C13.3961 9.24932 13.5046 8.9802 13.671 8.7474C13.8693 8.4956 14.1274 8.29738 14.4218 8.17076C14.7162 8.04415 15.0376 7.99316 15.3568 8.02245C15.6759 8.05173 15.9827 8.16035 16.2491 8.33843C16.5156 8.51651 16.7333 8.75839 16.8824 9.04207L19.7204 14.0001H21.929C22.4112 13.994 22.8801 14.1576 23.2539 14.4623C23.6277 14.7669 23.8824 15.1933 23.9737 15.6667C24.0222 15.9536 24.0075 16.2476 23.9307 16.5283C23.8538 16.8089 23.7167 17.0694 23.5288 17.2916C23.3409 17.5137 23.1068 17.6922 22.8428 17.8146C22.5788 17.937 22.2913 18.0003 22.0004 18.0001H19.7204L16.8757 22.9694C16.7033 23.2822 16.4499 23.5429 16.1422 23.7242C15.8344 23.9056 15.4836 24.0008 15.1264 24.0001ZM11.7457 16.6667H15.667C15.7735 16.6677 15.8782 16.6939 15.9724 16.7433C16.0667 16.7926 16.1479 16.8638 16.2093 16.9507C16.2706 17.0377 16.3104 17.138 16.3253 17.2434C16.3402 17.3487 16.3299 17.4562 16.295 17.5567L14.6884 22.0721C14.6669 22.1398 14.6618 22.2116 14.6734 22.2817C14.6849 22.3518 14.7129 22.4182 14.755 22.4754C14.8223 22.542 14.9043 22.5918 14.9945 22.6206C15.0846 22.6495 15.1803 22.6566 15.2738 22.6414C15.3672 22.6262 15.4557 22.5891 15.5321 22.5331C15.6084 22.4771 15.6704 22.4039 15.713 22.3194L18.755 17.0001C18.8137 16.8985 18.898 16.8142 18.9996 16.7557C19.1012 16.6972 19.2165 16.6665 19.3337 16.6667H22.0004C22.0978 16.6668 22.1941 16.6455 22.2824 16.6043C22.3707 16.5631 22.449 16.503 22.5116 16.4284C22.5742 16.3537 22.6196 16.2662 22.6448 16.172C22.6699 16.0779 22.6741 15.9793 22.657 15.8834C22.6176 15.7219 22.5236 15.579 22.3909 15.4788C22.2583 15.3786 22.0952 15.3273 21.929 15.3334H19.3337C19.2165 15.3336 19.1012 15.3029 18.9996 15.2444C18.898 15.1859 18.8137 15.1016 18.755 15.0001L15.7184 9.69274C15.6779 9.60545 15.6169 9.52927 15.5405 9.4707C15.4642 9.41213 15.3748 9.37292 15.28 9.35641C15.1852 9.3399 15.0878 9.34659 14.9962 9.3759C14.9045 9.40521 14.8213 9.45628 14.7537 9.52474C14.7111 9.58378 14.6832 9.65217 14.6724 9.7242C14.6616 9.79623 14.6682 9.86979 14.6917 9.93874L16.2917 14.4434C16.3264 14.5437 16.3369 14.6508 16.3221 14.756C16.3074 14.8611 16.2679 14.9612 16.2069 15.0481C16.1459 15.135 16.0652 15.2061 15.9713 15.2557C15.8775 15.3053 15.7732 15.332 15.667 15.3334H11.7457C11.6356 15.3334 11.5272 15.3062 11.4301 15.254C11.3331 15.2019 11.2505 15.1266 11.1897 15.0347L10.261 13.6347C10.109 13.3541 9.57171 13.2101 9.40105 13.4947C9.36619 13.5434 9.34398 13.5999 9.33641 13.6593C9.32885 13.7186 9.33617 13.7789 9.35771 13.8347L10.0724 15.7721C10.127 15.9205 10.127 16.0836 10.0724 16.2321L9.36171 18.1721C9.3419 18.2279 9.33575 18.2876 9.34378 18.3463C9.35181 18.405 9.37378 18.4609 9.40786 18.5093C9.44194 18.5578 9.48713 18.5974 9.53965 18.6247C9.59217 18.6521 9.65049 18.6665 9.70971 18.6667C9.82043 18.6668 9.92942 18.6393 10.0268 18.5867C10.1243 18.5341 10.207 18.458 10.2677 18.3654L11.185 16.9654C11.2463 16.8729 11.3296 16.7971 11.4275 16.745C11.5254 16.6928 11.6348 16.6659 11.7457 16.6667Z" fill="white"/>
    </g>
    <defs>
        <linearGradient id="paint0_linear_32_2670" x1="0" y1="0" x2="22.9155" y2="37.5447" gradientUnits="userSpaceOnUse">
            <stop stop-color="#79E3BD"/>
            <stop offset="1" stop-color="#4878D7"/>
        </linearGradient>
        <clipPath id="clip0_32_2670">
            <rect width="16" height="16" fill="white" transform="translate(8 8)"/>
        </clipPath>
    </defs>
</svg>
