<svg width="33" height="33" viewBox="0 0 33 33" fill="none" xmlns="http://www.w3.org/2000/svg">
    <g clip-path="url(#clip0_114_1288)">
        <path fill-rule="evenodd" clip-rule="evenodd" d="M7.56509 0.5H25.9623C29.7031 0.5 32.7637 3.56054 32.7637 7.30142V25.6986C32.7637 29.4395 29.7031 32.5 25.9623 32.5H7.56509C3.82422 32.5 0.763672 29.4395 0.763672 25.6986V7.30142C0.763672 3.56054 3.82422 0.5 7.56509 0.5Z" fill="black"/>
        <path d="M16.8705 28.5511C14.4337 28.5511 13.3131 28.2508 11.4516 27.2485C9.83871 26.3802 8.44818 25.218 7.70384 23.5499C5.0368 17.5746 5.84703 8.6378 11.5466 5.66781C14.4408 4.15994 19.0317 3.99424 21.9721 5.48907C24.7925 6.92298 26.1572 9.16002 27.286 12.0302L24.9819 12.6885C23.9178 8.8227 21.3539 6.68096 17.1922 6.68096C15.5476 6.68096 14.0551 6.84618 12.8009 7.46796C9.80078 8.9545 8.57144 12.4417 8.45055 15.974C8.3626 18.5408 8.77744 21.1317 9.92286 22.9959C11.233 25.1279 13.9555 26.4762 16.5076 26.4762C18.898 26.4762 20.8214 26.0607 22.3049 24.6692C24.325 22.774 24.746 19.7519 22.171 17.9093C21.3778 24.6787 12.1983 24.2925 12.1983 18.912C12.1983 17.7948 12.6328 16.8198 13.5016 15.9873C15.2271 14.3339 17.8232 14.8224 19.9885 14.7897C19.7602 13.7678 18.8914 12.2872 17.2237 12.2872C15.9387 12.2872 14.8314 12.6103 14.2362 13.6054L12.4425 12.4417C13.2022 11.0152 14.734 10.0783 17.0841 10.0783C19.4342 10.0783 21.7348 11.6161 22.1162 14.5323L22.234 15.4328C23.5624 15.9688 24.5187 16.9687 25.1827 17.9761C27.0494 20.8089 26.0202 24.4426 23.3543 26.7017C21.8998 27.9343 19.7381 28.5509 16.8708 28.5509L16.8705 28.5511ZM14.34 18.8665C14.34 19.9749 15.516 20.8039 16.6546 20.8039C17.9247 20.8039 18.798 20.4457 19.2742 19.7293C19.7505 19.013 19.9887 18.1501 19.9887 17.1412C18.684 16.8096 16.414 16.5718 15.211 17.3681C14.6444 17.7431 14.3403 18.2208 14.3403 18.8665H14.34Z" fill="white"/>
    </g>
    <defs>
        <clipPath id="clip0_114_1288">
            <rect width="32" height="32" fill="white" transform="translate(0.763672 0.5)"/>
        </clipPath>
    </defs>
</svg>
