<svg width="84" height="64" viewBox="0 0 84 64" fill="none" xmlns="http://www.w3.org/2000/svg">
<path d="M42 39.5359C36.4344 39.5359 31.9047 42.7047 29.2235 45.1625C27.6188 46.6453 25.1406 46.6047 23.5969 45.0609C21.9719 43.4359 22.0125 40.7547 23.7188 39.1906C27.4563 35.7578 33.8141 31.4109 42.0203 31.4109C43.8281 31.4109 45.5547 31.6344 47.1797 32C46.611 33.6859 46.286 35.4938 46.286 37.3828C46.286 38.3578 46.3672 39.3125 46.5297 40.2266C45.1078 39.8 43.5844 39.5359 42 39.5359ZM51.2625 25.4594C53.8219 22.9203 57.1938 21.2141 60.9719 20.7469C55.65 17.9438 49.2719 15.8922 42.0203 15.8922C29.1016 15.8922 18.925 22.4531 12.6484 27.9984C10.8813 29.5422 10.8 32.2641 12.4656 33.9297C13.9688 35.4531 16.4063 35.5344 18.011 34.1125C18.7828 33.4219 19.636 32.7109 20.55 32.0203C27.4563 26.7188 34.6672 24.0172 42 24.0172C45.1078 24.0172 48.1953 24.5047 51.2625 25.4594ZM82.2188 17.4969C80.35 15.6484 77.8719 13.475 74.825 11.2812C64.9735 4.23281 53.6188 0.515625 42 0.515625C30.3813 0.515625 19.0266 4.23281 9.17501 11.2812C6.12814 13.475 3.65001 15.6484 1.78126 17.4969C0.176574 19.0813 0.176575 21.6609 1.76095 23.2656C3.34532 24.85 5.88439 24.85 7.46876 23.2859C12.9531 17.9031 24.8766 8.64062 42 8.64062C51.9531 8.64062 61.3375 11.7078 69.8688 17.7203C72.6313 19.6703 74.8656 21.6406 76.511 23.2656C78.1156 24.8297 80.6547 24.8297 82.2391 23.2453C83.8235 21.6609 83.8235 19.0609 82.2188 17.4969ZM42 47.2344C37.511 47.2344 33.875 50.8703 33.875 55.3594C33.875 59.8484 37.511 63.4844 42 63.4844C46.4891 63.4844 50.125 59.8484 50.125 55.3594C50.125 50.8703 46.4891 47.2344 42 47.2344Z" fill="#5FEFFF"/>
<path d="M63.0234 22.6562C54.8984 22.6562 48.2969 29.2578 48.2969 37.3828C48.2969 45.5078 54.8984 52.1094 63.0234 52.1094C71.1484 52.1094 77.75 45.5078 77.75 37.3828C77.75 29.2578 71.1484 22.6562 63.0234 22.6562ZM70.2141 41.6891C71.0062 42.4813 71.0062 43.7609 70.2141 44.5531C69.4219 45.3453 68.1422 45.3453 67.35 44.5531L63.0438 40.2469L58.7375 44.5531C57.9453 45.3453 56.6656 45.3453 55.8734 44.5531C55.0812 43.7609 55.0812 42.4813 55.8734 41.6891L60.1797 37.3828L55.8734 33.0766C55.0812 32.2844 55.0812 31.0047 55.8734 30.2125C56.6656 29.4203 57.9453 29.4203 58.7375 30.2125L63.0438 34.5187L67.35 30.2125C68.1422 29.4203 69.4219 29.4203 70.2141 30.2125C71.0062 31.0047 71.0062 32.2844 70.2141 33.0766L65.9078 37.3828L70.2141 41.6891Z" fill="#FF5858"/>
</svg>
