<svg width="75" height="75" viewBox="0 0 75 75" fill="none" xmlns="http://www.w3.org/2000/svg">
<g clip-path="url(#clip0_242_134411)">
<path d="M73.1077 43.1403C73.3975 41.2647 75 39.459 75 37.5C75 35.541 73.3975 33.7353 73.1077 31.8597C72.8012 29.934 73.764 27.7186 73.1743 25.9062C72.578 24.0605 70.4957 22.8378 69.6262 21.1321C68.75 19.4096 68.9732 17.0076 67.8438 15.4518C66.7111 13.8926 64.3523 13.3695 62.9897 12.0103C61.6305 10.6477 61.1074 8.28891 59.5482 7.15618C57.9924 6.02345 55.5904 6.25 53.8679 5.3738C52.1655 4.50426 50.9395 2.42204 49.0938 1.82569C47.2815 1.23601 45.066 2.1955 43.1403 1.89232C41.2647 1.60248 39.459 0 37.5 0C35.541 0 33.7353 1.60248 31.8597 1.89232C29.934 2.19883 27.7186 1.23601 25.9062 1.82569C24.0605 2.42204 22.8378 4.50426 21.1321 5.3738C19.4096 6.25 17.0076 6.02679 15.4518 7.15618C13.8926 8.28891 13.3695 10.6477 12.0103 12.0103C10.6477 13.3695 8.28891 13.8926 7.15618 15.4518C6.02345 17.0076 6.25 19.4096 5.3738 21.1321C4.50426 22.8345 2.42204 24.0605 1.82569 25.9062C1.23601 27.7186 2.1955 29.934 1.89232 31.8597C1.60248 33.7353 0 35.541 0 37.5C0 39.459 1.60248 41.2647 1.89232 43.1403C2.19883 45.066 1.23601 47.2815 1.82569 49.0938C2.42204 50.9395 4.50426 52.1622 5.3738 53.8679C6.25 55.5904 6.02679 57.9924 7.15618 59.5482C8.28891 61.1074 10.6477 61.6305 12.0103 62.9897C13.3695 64.3523 13.8926 66.7111 15.4518 67.8438C17.0076 68.9765 19.4096 68.75 21.1321 69.6262C22.8345 70.4957 24.0605 72.578 25.9062 73.1743C27.7186 73.764 29.934 72.8045 31.8597 73.1077C33.7353 73.3975 35.541 75 37.5 75C39.459 75 41.2647 73.3975 43.1403 73.1077C45.066 72.8012 47.2815 73.764 49.0938 73.1743C50.9395 72.578 52.1622 70.4957 53.8679 69.6262C55.5904 68.75 57.9924 68.9732 59.5482 67.8438C61.1074 66.7111 61.6305 64.3523 62.9897 62.9897C64.3523 61.6305 66.7111 61.1074 67.8438 59.5482C68.9765 57.9924 68.75 55.5904 69.6262 53.8679C70.4957 52.1655 72.578 50.9395 73.1743 49.0938C73.764 47.2815 72.8045 45.066 73.1077 43.1403ZM55.7736 12.0436L63.4795 18.7167L34.6715 51.9823L21.7917 39.1025L29.0012 31.8963L34.1385 37.0303L55.7769 12.0436H55.7736ZM37.5 66.8977C21.262 66.8977 8.10235 53.7347 8.10235 37.5C8.10235 21.2653 21.262 8.10235 37.5 8.10235C42.514 8.10235 47.2348 9.35834 51.3626 11.5705L48.4208 14.972C45.1193 13.3695 41.4146 12.47 37.5 12.47C23.6774 12.47 12.47 23.6774 12.47 37.5C12.47 51.3226 23.6774 62.53 37.5 62.53C51.3226 62.53 62.53 51.3226 62.53 37.5C62.53 34.0152 61.817 30.7003 60.5311 27.6852L63.6594 24.0705C65.7316 28.095 66.901 32.6626 66.901 37.5C66.901 53.738 53.738 66.8977 37.5033 66.8977H37.5Z" fill="#82CE51"/>
</g>
<defs>
<clipPath id="clip0_242_134411">
<rect width="75" height="75" fill="white"/>
</clipPath>
</defs>
</svg>
