<svg width="33" height="33" viewBox="0 0 33 33" fill="none" xmlns="http://www.w3.org/2000/svg">
    <path d="M16.7637 32.5C25.6002 32.5 32.7637 25.3366 32.7637 16.5C32.7637 7.66344 25.6002 0.5 16.7637 0.5C7.92712 0.5 0.763672 7.66344 0.763672 16.5C0.763672 25.3366 7.92712 32.5 16.7637 32.5Z" fill="url(#paint0_linear_114_1287)"/>
    <path d="M7.42242 16.3612L18.197 11.9219C19.2606 11.4595 22.8675 9.9797 22.8675 9.9797C22.8675 9.9797 24.5322 9.3323 24.3935 10.9046C24.3473 11.552 23.9773 13.8178 23.6074 16.2687L22.4513 23.5288C22.4513 23.5288 22.3588 24.5924 21.5727 24.7774C20.7866 24.9624 19.4918 24.13 19.2606 23.945C19.0756 23.8063 15.7924 21.7254 14.5901 20.708C14.2664 20.4306 13.8964 19.8757 14.6363 19.2283C16.301 17.7022 18.2895 15.8063 19.4918 14.604C20.0467 14.0491 20.6016 12.7543 18.2895 14.3265L11.7692 18.7196C11.7692 18.7196 11.0294 19.182 9.64208 18.7658C8.25479 18.3496 6.63629 17.7947 6.63629 17.7947C6.63629 17.7947 5.52647 17.1011 7.42242 16.3612Z" fill="white"/>
    <defs>
        <linearGradient id="paint0_linear_114_1287" x1="22.0982" y1="5.83457" x2="14.0982" y2="24.5" gradientUnits="userSpaceOnUse">
            <stop stop-color="#37AEE2"/>
            <stop offset="1" stop-color="#1E96C8"/>
        </linearGradient>
    </defs>
</svg>
