<svg width="20" height="20" viewBox="0 0 20 20" fill="none" xmlns="http://www.w3.org/2000/svg">
<g clip-path="url(#clip0_48_2203)">
<path d="M4.17094 20.0051C3.69996 20.0065 3.24604 19.829 2.90094 19.5085L1.2426 17.9676C-0.404062 16.3218 -0.404062 13.6785 1.22094 12.0543C2.00844 11.2676 3.0551 10.8343 4.1676 10.8343C5.2801 10.8343 6.32677 11.2676 7.11344 12.0543C7.90094 12.841 8.33427 13.8876 8.33427 15.001C8.33427 16.1143 7.90094 17.1601 7.11344 17.9468L5.44594 19.506C5.08927 19.8393 4.63094 20.006 4.1726 20.006L4.17094 20.0051ZM4.16677 12.5001C3.49927 12.5001 2.87094 12.7601 2.39844 13.2326C1.93057 13.7019 1.66785 14.3375 1.66785 15.0001C1.66785 15.6628 1.93057 16.2984 2.39844 16.7676L4.0351 18.2876C4.07207 18.3218 4.12058 18.3408 4.17094 18.3408C4.2213 18.3408 4.26981 18.3218 4.30677 18.2876L5.95427 16.7485C6.40594 16.296 6.66594 15.6685 6.66594 15.0001C6.66594 14.3318 6.40594 13.7043 5.93344 13.2318C5.7018 12.9991 5.42632 12.8146 5.12294 12.689C4.81956 12.5634 4.49512 12.4992 4.16677 12.5001ZM15.8376 9.17181C15.3667 9.17284 14.9129 8.99537 14.5676 8.67514L12.9093 7.13431C11.2626 5.48848 11.2626 2.84514 12.8876 1.22098C13.6743 0.43431 14.7209 0.000976562 15.8343 0.000976562C16.9476 0.000976562 17.9926 0.43431 18.7801 1.22098C19.5605 2.00292 19.9987 3.06251 19.9987 4.16723C19.9987 5.27194 19.5605 6.33154 18.7801 7.11348L17.1126 8.67264C16.7559 9.00598 16.2968 9.17264 15.8384 9.17264L15.8376 9.17181ZM15.8334 1.66681C15.1651 1.66681 14.5376 1.92681 14.0651 2.39848C13.5972 2.86787 13.3344 3.50362 13.3344 4.16639C13.3344 4.82917 13.5972 5.46492 14.0651 5.93431L15.7009 7.45431C15.7381 7.48839 15.7867 7.5073 15.8372 7.5073C15.8876 7.5073 15.9362 7.48839 15.9734 7.45431L17.6209 5.91514C18.5751 4.96014 18.5751 3.37431 17.6009 2.39931C17.3694 2.16641 17.094 1.98174 16.7906 1.85601C16.4872 1.73027 16.1619 1.66597 15.8334 1.66681ZM20.0001 16.6668C20.0001 14.8285 18.5051 13.3335 16.6668 13.3335H12.5001C11.5809 13.3335 10.8334 12.586 10.8334 11.6668C10.8334 10.961 11.2801 10.3301 11.9443 10.0951C12.0475 10.0587 12.1425 10.0023 12.2239 9.92913C12.3053 9.85597 12.3715 9.7675 12.4187 9.66876C12.4659 9.57002 12.4932 9.46295 12.499 9.35366C12.5048 9.24437 12.489 9.13501 12.4526 9.03181C12.4162 8.92861 12.3598 8.8336 12.2866 8.75221C12.2134 8.67081 12.125 8.60462 12.0262 8.55742C11.9275 8.51022 11.8204 8.48292 11.7111 8.4771C11.6018 8.47128 11.4925 8.48703 11.3893 8.52348C10.7397 8.75397 10.1774 9.17984 9.77945 9.74263C9.38153 10.3054 9.16751 10.9776 9.16677 11.6668C9.16677 13.5051 10.6618 15.0001 12.5001 15.0001H16.6668C17.5859 15.0001 18.3334 15.7476 18.3334 16.6668C18.3334 17.586 17.5859 18.3335 16.6668 18.3335H9.16677C8.94576 18.3335 8.7338 18.4213 8.57752 18.5776C8.42124 18.7338 8.33344 18.9458 8.33344 19.1668C8.33344 19.3878 8.42124 19.5998 8.57752 19.7561C8.7338 19.9123 8.94576 20.0001 9.16677 20.0001H16.6668C18.5051 20.0001 20.0001 18.5051 20.0001 16.6668Z" fill="white"/>
</g>
<defs>
<clipPath id="clip0_48_2203">
<rect width="20" height="20" fill="white"/>
</clipPath>
</defs>
</svg>
