<svg width="24" height="24" viewBox="0 0 24 24" fill="none" xmlns="http://www.w3.org/2000/svg">
<g clip-path="url(#clip0_79_858)">
<path d="M12.9998 1V23C12.9998 23.55 12.5498 24 11.9998 24C11.4498 24 10.9998 23.55 10.9998 23V1C10.9998 0.45 11.4498 0 11.9998 0C12.5498 0 12.9998 0.45 12.9998 1ZM8.99977 12C8.99977 12.65 8.71977 13.28 8.23977 13.71L3.15977 18.5C2.89176 18.749 2.55658 18.914 2.19575 18.9744C1.83492 19.0349 1.46429 18.9881 1.12977 18.84C0.439766 18.54 0.00976562 17.88 0.00976562 17.12V6.88C0.00976562 6.13 0.439766 5.47 1.12977 5.16C1.81977 4.86 2.59977 4.98 3.14977 5.49L8.25977 10.3C8.72977 10.72 9.00977 11.34 9.00977 11.99L8.99977 12ZM6.99977 12C6.99977 12 6.98977 11.86 6.89977 11.78L1.99977 7.17V16.84L6.87977 12.24C6.97977 12.15 6.99977 12.05 6.99977 12ZM23.9998 6.88V17.13C23.9998 17.88 23.5698 18.54 22.8798 18.85C22.5471 18.999 22.1778 19.0462 21.8183 18.9857C21.4589 18.9252 21.1253 18.7597 20.8598 18.51L15.7498 13.7C15.2798 13.28 14.9998 12.66 14.9998 12.01C14.9998 11.36 15.2798 10.74 15.7598 10.3L20.8398 5.51C21.4098 4.99 22.1798 4.86 22.8698 5.17C23.5598 5.47 23.9898 6.13 23.9898 6.89L23.9998 6.88Z" fill="white"/>
</g>
<defs>
<clipPath id="clip0_79_858">
<rect width="24" height="24" fill="white"/>
</clipPath>
</defs>
</svg>
