<svg width="20" height="20" viewBox="0 0 20 20" fill="none" xmlns="http://www.w3.org/2000/svg">
<g clip-path="url(#clip0_48_2268)">
<path d="M15.8332 3.33333H15.7491C15.5557 2.39298 15.0441 1.54804 14.3004 0.940861C13.5568 0.333687 12.6266 0.00140364 11.6666 0L4.16657 0C1.86907 0 -0.00010035 1.86917 -0.00010035 4.16667V14.8792C-0.0451003 16.265 1.65323 17.175 2.7824 16.3683L5.2549 14.72C5.8299 16.3342 7.3574 17.5 9.16657 17.5H13.9141L17.2166 19.7017C18.3466 20.5075 20.0441 19.5983 19.9999 18.2125V7.5C19.9999 5.2025 18.1307 3.33333 15.8332 3.33333ZM1.8574 14.9817C1.81573 15.0475 1.63407 14.9492 1.66657 14.8792V4.16667C1.66657 2.78833 2.78823 1.66667 4.16657 1.66667H11.6666C13.0449 1.66667 14.1666 2.78833 14.1666 4.16667V10C14.1666 11.3783 13.0449 12.5 11.6666 12.5H5.83323C5.66823 12.4992 5.51407 12.565 5.37073 12.64L1.8574 14.9817ZM18.3332 18.2125C18.3657 18.2842 18.1807 18.3817 18.1416 18.315L14.6291 15.9733C14.492 15.8821 14.3312 15.8334 14.1666 15.8333H9.16657C8.65123 15.8317 8.14904 15.6706 7.72889 15.3722C7.30873 15.0738 6.99122 14.6527 6.8199 14.1667H11.6666C13.9641 14.1667 15.8332 12.2975 15.8332 10V5C17.2116 5 18.3332 6.12167 18.3332 7.5V18.2125ZM6.41657 10H4.9999C4.77889 10 4.56692 9.9122 4.41064 9.75592C4.25436 9.59964 4.16657 9.38768 4.16657 9.16667V5C4.16657 4.77899 4.25436 4.56702 4.41064 4.41074C4.56692 4.25446 4.77889 4.16667 4.9999 4.16667H6.41657C6.59338 4.16667 6.76295 4.2369 6.88797 4.36193C7.013 4.48695 7.08323 4.65652 7.08323 4.83333C7.08323 5.01014 7.013 5.17971 6.88797 5.30474C6.76295 5.42976 6.59338 5.5 6.41657 5.5H5.49907V6.4175H6.41657C6.59338 6.4175 6.76295 6.48774 6.88797 6.61276C7.013 6.73779 7.08323 6.90736 7.08323 7.08417C7.08323 7.26098 7.013 7.43055 6.88797 7.55557C6.76295 7.6806 6.59338 7.75083 6.41657 7.75083H5.49907V8.66833H6.41657C6.59338 8.66833 6.76295 8.73857 6.88797 8.8636C7.013 8.98862 7.08323 9.15819 7.08323 9.335C7.08323 9.51181 7.013 9.68138 6.88797 9.80641C6.76295 9.93143 6.59338 10.0017 6.41657 10.0017V10ZM7.91657 9.3775V4.92833C7.91641 4.75514 7.97529 4.58707 8.08348 4.45183C8.19168 4.31659 8.34274 4.22227 8.51174 4.18441C8.68074 4.14655 8.8576 4.16742 9.01315 4.24358C9.1687 4.31973 9.29365 4.44663 9.3674 4.60333L10.5616 7.12917V4.78917C10.5616 4.62407 10.6272 4.46573 10.7439 4.34899C10.8606 4.23225 11.019 4.16667 11.1841 4.16667C11.3492 4.16667 11.5075 4.23225 11.6242 4.34899C11.741 4.46573 11.8066 4.62407 11.8066 4.78917V9.23833C11.8057 9.41084 11.7463 9.57794 11.6382 9.71235C11.5301 9.84677 11.3796 9.94054 11.2113 9.97836C11.0429 10.0162 10.8668 9.99582 10.7115 9.92058C10.5563 9.84535 10.4312 9.71971 10.3566 9.56417L9.16323 7.04333V9.3775C9.16323 9.5426 9.09765 9.70093 8.98091 9.81767C8.86417 9.93441 8.70583 10 8.54073 10C8.37564 10 8.2173 9.93441 8.10056 9.81767C7.98382 9.70093 7.91823 9.5426 7.91823 9.3775H7.91657Z" fill="white"/>
</g>
<defs>
<clipPath id="clip0_48_2268">
<rect width="20" height="20" fill="white"/>
</clipPath>
</defs>
</svg>
