<svg width="24" height="24" viewBox="0 0 24 24" fill="none" xmlns="http://www.w3.org/2000/svg">
<path d="M9.106 8.001C8.349 8.001 7.825 8.587 7.721 9.167L6.521 15.143C6.50314 15.2353 6.50364 15.3303 6.52247 15.4224C6.5413 15.5145 6.57809 15.602 6.63074 15.6799C6.68339 15.7578 6.75087 15.8246 6.82933 15.8764C6.90778 15.9283 6.99568 15.9641 7.088 15.982C7.18032 15.9999 7.27525 15.9994 7.36738 15.9805C7.45951 15.9617 7.54702 15.9249 7.62493 15.8723C7.70284 15.8196 7.76961 15.7521 7.82144 15.6737C7.87327 15.5952 7.90914 15.5073 7.927 15.415L8.093 14.526H10.099L10.256 15.409C10.2854 15.5746 10.3721 15.7246 10.501 15.8327C10.6299 15.9408 10.7928 16 10.961 16H10.971C11.0772 15.9999 11.1821 15.9763 11.278 15.9307C11.3739 15.8851 11.4585 15.8187 11.5256 15.7364C11.5927 15.6541 11.6407 15.5578 11.666 15.4547C11.6913 15.3515 11.6934 15.244 11.672 15.14L10.451 9.193C10.331 8.525 9.862 8.001 9.105 8.001H9.106ZM8.461 13L9.085 9.705L9.723 13H8.461ZM17.6 13V11C17.6 10.2044 17.2839 9.44129 16.7213 8.87868C16.1587 8.31607 15.3956 8 14.6 8H14C13.7348 8 13.4804 8.10536 13.2929 8.29289C13.1054 8.48043 13 8.73478 13 9V15C13 15.2652 13.1054 15.5196 13.2929 15.7071C13.4804 15.8946 13.7348 16 14 16H14.6C14.994 16 15.3841 15.9224 15.7481 15.7716C16.112 15.6209 16.4427 15.3999 16.7213 15.1213C16.9999 14.8427 17.2209 14.512 17.3716 14.1481C17.5224 13.7841 17.6 13.394 17.6 13ZM16 13C16 13.772 15.372 14.4 14.6 14.4V9.6C15.372 9.6 16 10.228 16 11V13ZM12 0C5.383 0 0 5.383 0 12C0 18.617 5.383 24 12 24C18.617 24 24 18.617 24 12C24 5.383 18.617 0 12 0ZM2 12C2 9.602 2.85 7.4 4.262 5.676L5.793 7.207C5.88565 7.30018 5.99581 7.37413 6.11715 7.4246C6.23848 7.47506 6.36859 7.50103 6.5 7.50103C6.63141 7.50103 6.76152 7.47506 6.88285 7.4246C7.00419 7.37413 7.11435 7.30018 7.207 7.207C7.29995 7.11421 7.37368 7.00401 7.42399 6.88269C7.4743 6.76138 7.5002 6.63133 7.5002 6.5C7.5002 6.36867 7.4743 6.23862 7.42399 6.11731C7.37368 5.99599 7.29995 5.88579 7.207 5.793L5.676 4.262C7.45828 2.79812 9.6936 1.99858 12 2C17.514 2 22 6.486 22 12C22 14.398 21.15 16.6 19.738 18.324L17.945 16.531C17.7575 16.3435 17.5032 16.2382 17.238 16.2382C16.9728 16.2382 16.7185 16.3435 16.531 16.531C16.3435 16.7185 16.2382 16.9728 16.2382 17.238C16.2382 17.5032 16.3435 17.7575 16.531 17.945L18.324 19.738C16.5417 21.2019 14.3064 22.0014 12 22C6.486 22 2 17.514 2 12Z" fill="white"/>
</svg>
