<svg width="20" height="20" viewBox="0 0 20 20" fill="none" xmlns="http://www.w3.org/2000/svg">
<g clip-path="url(#clip0_48_2219)">
<path d="M14.2624 6.70842C14.0234 6.7719 13.8087 6.90479 13.6453 7.0903C13.4819 7.27581 13.3772 7.50561 13.3444 7.75063C13.3116 7.99566 13.3522 8.2449 13.461 8.46686C13.5699 8.68882 13.7421 8.87352 13.9559 8.99761C14.1697 9.1217 14.4155 9.17961 14.6622 9.16401C14.9089 9.14842 15.1455 9.06001 15.342 8.90998C15.5384 8.75995 15.686 8.55503 15.766 8.32113C15.8461 8.08723 15.8549 7.83486 15.7915 7.59592C15.7494 7.43722 15.6765 7.28838 15.5768 7.15789C15.4772 7.02739 15.3528 6.91781 15.2108 6.83539C15.0688 6.75298 14.9119 6.69934 14.7492 6.67756C14.5865 6.65577 14.421 6.66626 14.2624 6.70842ZM10.0957 4.20842C9.85677 4.2719 9.64204 4.40479 9.47864 4.5903C9.31525 4.77581 9.21053 5.00561 9.17772 5.25063C9.14492 5.49566 9.1855 5.7449 9.29435 5.96686C9.40319 6.18882 9.5754 6.37352 9.78921 6.49761C10.003 6.6217 10.2488 6.67961 10.4955 6.66401C10.7423 6.64842 10.9788 6.56001 11.1753 6.40998C11.3718 6.25995 11.5193 6.05503 11.5994 5.82113C11.6794 5.58723 11.6883 5.33486 11.6249 5.09592C11.5827 4.93722 11.5098 4.78838 11.4101 4.65789C11.3105 4.52739 11.1861 4.41781 11.0441 4.33539C10.9021 4.25298 10.7453 4.19935 10.5825 4.17756C10.4198 4.15577 10.2544 4.16626 10.0957 4.20842ZM5.92902 6.70842C5.6901 6.7719 5.47537 6.90479 5.31197 7.0903C5.14858 7.27581 5.04386 7.50561 5.01106 7.75063C4.97825 7.99566 5.01884 8.2449 5.12768 8.46686C5.23652 8.68882 5.40874 8.87352 5.62254 8.99761C5.83635 9.1217 6.08216 9.17961 6.32887 9.16401C6.57559 9.14842 6.81214 9.06001 7.00862 8.90998C7.2051 8.75995 7.35268 8.55503 7.4327 8.32113C7.51272 8.08723 7.52159 7.83486 7.45819 7.59592C7.41608 7.43722 7.34312 7.28838 7.24348 7.15789C7.14383 7.02739 7.01946 6.91781 6.87746 6.83539C6.73545 6.75298 6.57861 6.69934 6.41587 6.67756C6.25314 6.65577 6.08771 6.66626 5.92902 6.70842ZM5.92902 11.7084C5.6901 11.7719 5.47537 11.9048 5.31197 12.0903C5.14858 12.2758 5.04386 12.5056 5.01106 12.7506C4.97825 12.9957 5.01884 13.2449 5.12768 13.4669C5.23652 13.6888 5.40874 13.8735 5.62254 13.9976C5.83635 14.1217 6.08216 14.1796 6.32887 14.164C6.57559 14.1484 6.81214 14.06 7.00862 13.91C7.2051 13.76 7.35268 13.555 7.4327 13.3211C7.51272 13.0872 7.52159 12.8349 7.45819 12.5959C7.41608 12.4372 7.34312 12.2884 7.24348 12.1579C7.14383 12.0274 7.01946 11.9178 6.87746 11.8354C6.73545 11.753 6.57861 11.6993 6.41587 11.6776C6.25314 11.6558 6.08771 11.6663 5.92902 11.7084Z" fill="white"/>
<path d="M10.4168 0.00603998C9.07516 -0.0406115 7.73782 0.183365 6.48456 0.664617C5.2313 1.14587 4.08777 1.87454 3.12214 2.80719C2.15651 3.73985 1.38857 4.85738 0.864081 6.09318C0.339595 7.32897 0.0693082 8.65772 0.0693359 10.0002C0.0724236 12.6514 1.12698 15.1932 3.00168 17.0679C4.87637 18.9426 7.41812 19.9971 10.0693 20.0002C10.351 20.0002 10.6277 19.9819 10.9027 19.9585C11.1113 19.941 11.3057 19.8454 11.4472 19.691C11.5886 19.5366 11.6667 19.3346 11.666 19.1252L11.6393 16.1352C11.6326 15.5444 11.8021 14.9649 12.1262 14.4708C12.4503 13.9767 12.9143 13.5905 13.459 13.3613C14.0036 13.1322 14.6042 13.0706 15.1841 13.1844C15.7639 13.2982 16.2967 13.5822 16.7143 14.0002L16.7977 14.0835C16.9869 14.2743 17.2212 14.4142 17.4789 14.4901C17.7367 14.566 18.0094 14.5755 18.2718 14.5177C18.53 14.4635 18.7704 14.3453 18.9709 14.1739C19.1714 14.0025 19.3256 13.7835 19.4193 13.5369C19.8794 12.3288 20.0994 11.0425 20.0668 9.75021C19.9731 7.21188 18.929 4.80144 17.1417 2.99665C15.3543 1.19186 12.9541 0.124467 10.4168 0.00603998ZM17.9018 12.8394L17.8902 12.8277C17.2388 12.1774 16.4087 11.7356 15.5055 11.5584C14.6023 11.3812 13.6668 11.4768 12.818 11.8328C11.9692 12.1888 11.2455 12.7893 10.739 13.5578C10.2325 14.3263 9.96602 15.2281 9.9735 16.1485L9.9935 18.3335C7.78336 18.3236 5.6677 17.4361 4.11193 15.8662C2.55616 14.2964 1.68772 12.1728 1.69767 9.96271C1.70761 7.75257 2.59513 5.6369 4.16496 4.08113C5.7348 2.52536 7.85836 1.65693 10.0685 1.66687C10.166 1.66687 10.2643 1.66687 10.3627 1.67187C12.4763 1.77115 14.4756 2.66082 15.9642 4.16459C17.4528 5.66836 18.3223 7.67649 18.4002 9.79104C18.4277 10.8274 18.2595 11.8596 17.9043 12.8335L17.9018 12.8394Z" fill="white"/>
</g>
<defs>
<clipPath id="clip0_48_2219">
<rect width="20" height="20" fill="white"/>
</clipPath>
</defs>
</svg>
