<svg width="24" height="24" viewBox="0 0 24 24" fill="none" xmlns="http://www.w3.org/2000/svg">
<g clip-path="url(#clip0_79_852)">
<path d="M21.95 5.55104L18.465 2.06604C17.8166 1.41369 17.0453 0.89649 16.1956 0.544423C15.3459 0.192356 14.4347 0.0124204 13.515 0.0150429H9C7.89463 0.0149425 6.82038 0.381136 5.94522 1.05637C5.07006 1.7316 4.44332 2.67781 4.163 3.74704C4.10477 4.00046 4.14754 4.26658 4.28223 4.489C4.41692 4.71141 4.63294 4.87261 4.88449 4.93842C5.13604 5.00424 5.40333 4.96949 5.62969 4.84154C5.85604 4.71359 6.02366 4.5025 6.097 4.25304C6.26576 3.61176 6.6421 3.0444 7.16727 2.63954C7.69244 2.23467 8.33689 2.01508 9 2.01504H13.515C13.68 2.01504 13.838 2.04704 14 2.06204V7.01504C14 8.66904 15.346 10.015 17 10.015H21.951C21.967 10.177 22 10.337 22 10.5V19.015C22 20.669 20.654 22.015 19 22.015H9C8.31 22.015 7.662 21.787 7.125 21.358C6.91759 21.198 6.65566 21.1257 6.39553 21.1568C6.1354 21.1879 5.89785 21.3198 5.73395 21.5241C5.57006 21.7285 5.49291 21.989 5.5191 22.2497C5.54529 22.5104 5.67272 22.7504 5.874 22.918C6.76134 23.6271 7.86315 24.0139 8.999 24.015H18.999C21.756 24.015 23.999 21.772 23.999 19.015V10.5C24.0015 9.58056 23.8215 8.66972 23.4697 7.82023C23.1178 6.97074 22.6009 6.19947 21.949 5.55104H21.95ZM17 8.01504C16.449 8.01504 16 7.56704 16 7.01504V2.69804C16.376 2.91504 16.735 3.16404 17.05 3.47904L20.535 6.96404C20.846 7.27504 21.094 7.63604 21.311 8.01404H16.999L17 8.01504ZM10 16H18C18.2652 16 18.5196 16.1054 18.7071 16.2929C18.8946 16.4805 19 16.7348 19 17C19 17.2653 18.8946 17.5196 18.7071 17.7072C18.5196 17.8947 18.2652 18 18 18H10C9.73478 18 9.48043 17.8947 9.29289 17.7072C9.10536 17.5196 9 17.2653 9 17C9 16.7348 9.10536 16.4805 9.29289 16.2929C9.48043 16.1054 9.73478 16 10 16ZM7 18.847V14.097C7.907 13.363 8.5 12.255 8.5 11C8.5 8.79404 6.706 7.00004 4.5 7.00004C2.294 7.00004 0.5 8.79404 0.5 11C0.5 12.255 1.093 13.363 2 14.097V18.847C2 19.47 2.791 19.737 3.169 19.242L4.5 17.499L5.831 19.242C6.209 19.737 7 19.47 7 18.847ZM4.5 9.00004C5.603 9.00004 6.5 9.89704 6.5 11C6.5 12.103 5.603 13 4.5 13C3.397 13 2.5 12.103 2.5 11C2.5 9.89704 3.397 9.00004 4.5 9.00004ZM11 14C10.7348 14 10.4804 13.8947 10.2929 13.7072C10.1054 13.5196 10 13.2653 10 13C10 12.7348 10.1054 12.4805 10.2929 12.2929C10.4804 12.1054 10.7348 12 11 12H18C18.2652 12 18.5196 12.1054 18.7071 12.2929C18.8946 12.4805 19 12.7348 19 13C19 13.2653 18.8946 13.5196 18.7071 13.7072C18.5196 13.8947 18.2652 14 18 14H11Z" fill="white"/>
</g>
<defs>
<clipPath id="clip0_79_852">
<rect width="24" height="24" fill="white"/>
</clipPath>
</defs>
</svg>
