<svg width="20" height="20" viewBox="0 0 20 20" fill="none" xmlns="http://www.w3.org/2000/svg">
<g clip-path="url(#clip0_48_2261)">
<path d="M15.4845 1.78353L10.2637 0.0427007C10.0927 -0.0142336 9.90793 -0.0142336 9.73699 0.0427007L4.51616 1.78353C3.68608 2.05927 2.96401 2.58958 2.45253 3.29913C1.94105 4.00867 1.66619 4.86136 1.66699 5.73603V10.0002C1.66699 16.3027 9.33366 19.7835 9.66199 19.9285C9.76851 19.9759 9.88377 20.0003 10.0003 20.0003C10.1169 20.0003 10.2321 19.9759 10.3387 19.9285C10.667 19.7835 18.3337 16.3027 18.3337 10.0002V5.73603C18.3345 4.86136 18.0596 4.00867 17.5481 3.29913C17.0366 2.58958 16.3146 2.05927 15.4845 1.78353ZM16.667 10.0002C16.667 14.546 11.4012 17.5277 10.0003 18.241C8.59783 17.5302 3.33366 14.5577 3.33366 10.0002V5.73603C3.33371 5.21127 3.49889 4.69982 3.8058 4.27415C4.11271 3.84849 4.54578 3.53019 5.04366 3.36437L10.0003 1.71187L14.957 3.36437C15.4549 3.53019 15.8879 3.84849 16.1949 4.27415C16.5018 4.69982 16.6669 5.21127 16.667 5.73603V10.0002Z" fill="white"/>
<path d="M12.7506 6.91722L9.26064 10.4172L7.39064 8.46722C7.31559 8.38516 7.22489 8.31896 7.12386 8.27251C7.02283 8.22605 6.91353 8.20029 6.80239 8.19673C6.69125 8.19317 6.58052 8.21189 6.47673 8.25178C6.37294 8.29168 6.27818 8.35194 6.19803 8.42903C6.11789 8.50611 6.05399 8.59845 6.01008 8.70062C5.96618 8.80278 5.94317 8.91269 5.9424 9.02389C5.94164 9.13508 5.96313 9.2453 6.00562 9.34806C6.04811 9.45082 6.11074 9.54404 6.18981 9.62222L8.11147 11.6222C8.25479 11.777 8.42801 11.9011 8.62066 11.9871C8.81331 12.073 9.02138 12.119 9.23231 12.1222H9.25981C9.46652 12.1229 9.67131 12.0825 9.86229 12.0034C10.0533 11.9243 10.2266 11.808 10.3723 11.6614L13.9323 8.10138C14.0101 8.02379 14.0718 7.93165 14.1139 7.83021C14.1561 7.72877 14.1778 7.62003 14.1779 7.51018C14.178 7.40034 14.1565 7.29155 14.1146 7.19002C14.0727 7.0885 14.0111 6.99622 13.9336 6.91847C13.856 6.84071 13.7638 6.779 13.6624 6.73686C13.5609 6.69472 13.4522 6.67297 13.3424 6.67285C13.2325 6.67274 13.1237 6.69426 13.0222 6.73618C12.9207 6.77811 12.8284 6.83963 12.7506 6.91722Z" fill="white"/>
</g>
<defs>
<clipPath id="clip0_48_2261">
<rect width="20" height="20" fill="white"/>
</clipPath>
</defs>
</svg>
