<svg width="21" height="20" viewBox="0 0 21 20" fill="none" xmlns="http://www.w3.org/2000/svg">
<g clip-path="url(#clip0_79_894)">
<path d="M15.9835 1.78329L10.7627 0.0424565C10.5917 -0.0144777 10.407 -0.0144777 10.236 0.0424565L5.01518 1.78329C4.1851 2.05902 3.46303 2.58934 2.95155 3.29888C2.44008 4.00843 2.16521 4.86111 2.16602 5.73579V9.99996C2.16602 16.3025 9.83268 19.7833 10.161 19.9283C10.2675 19.9756 10.3828 20.0001 10.4994 20.0001C10.6159 20.0001 10.7312 19.9756 10.8377 19.9283C11.166 19.7833 18.8327 16.3025 18.8327 9.99996V5.73579C18.8335 4.86111 18.5586 4.00843 18.0471 3.29888C17.5357 2.58934 16.8136 2.05902 15.9835 1.78329ZM17.166 9.99996C17.166 14.5458 11.9002 17.5275 10.4994 18.2408C9.09685 17.53 3.83268 14.5575 3.83268 9.99996V5.73579C3.83273 5.21102 3.99791 4.69957 4.30482 4.27391C4.61173 3.84824 5.0448 3.52995 5.54268 3.36412L10.4994 1.71162L15.456 3.36412C15.9539 3.52995 16.387 3.84824 16.6939 4.27391C17.0008 4.69957 17.166 5.21102 17.166 5.73579V9.99996Z" fill="url(#paint0_linear_79_894)"/>
<path d="M13.2497 6.91661L9.75967 10.4166L7.88966 8.46661C7.81462 8.38455 7.72391 8.31835 7.62288 8.2719C7.52185 8.22544 7.41255 8.19968 7.30141 8.19612C7.19027 8.19256 7.07954 8.21128 6.97575 8.25117C6.87196 8.29107 6.7772 8.35133 6.69706 8.42842C6.61692 8.5055 6.55301 8.59784 6.50911 8.70001C6.46521 8.80217 6.44219 8.91208 6.44143 9.02328C6.44066 9.13447 6.46215 9.24469 6.50464 9.34745C6.54713 9.45021 6.60976 9.54343 6.68883 9.62161L8.6105 11.6216C8.75381 11.7764 8.92703 11.9005 9.11968 11.9865C9.31233 12.0724 9.52041 12.1184 9.73133 12.1216H9.75883C9.96554 12.1223 10.1703 12.0819 10.3613 12.0028C10.5523 11.9237 10.7257 11.8074 10.8713 11.6608L14.4313 8.10077C14.5091 8.02318 14.5708 7.93104 14.6129 7.8296C14.6551 7.72816 14.6768 7.61942 14.6769 7.50957C14.6771 7.39973 14.6555 7.29094 14.6136 7.18941C14.5717 7.08789 14.5102 6.99561 14.4326 6.91786C14.355 6.8401 14.2628 6.77839 14.1614 6.73625C14.06 6.69411 13.9512 6.67236 13.8414 6.67224C13.7315 6.67213 13.6227 6.69365 13.5212 6.73557C13.4197 6.7775 13.3274 6.83902 13.2497 6.91661Z" fill="url(#paint1_linear_79_894)"/>
</g>
<defs>
<linearGradient id="paint0_linear_79_894" x1="2.16602" y1="-0.000244141" x2="17.5194" y2="20.9619" gradientUnits="userSpaceOnUse">
<stop stop-color="#79E3BD"/>
<stop offset="1" stop-color="#4878D7"/>
</linearGradient>
<linearGradient id="paint1_linear_79_894" x1="6.44141" y1="6.67224" x2="9.48848" y2="14.217" gradientUnits="userSpaceOnUse">
<stop stop-color="#79E3BD"/>
<stop offset="1" stop-color="#4878D7"/>
</linearGradient>
<clipPath id="clip0_79_894">
<rect width="20" height="20" fill="white" transform="translate(0.5)"/>
</clipPath>
</defs>
</svg>
