<svg width="20" height="20" viewBox="0 0 20 20" fill="none" xmlns="http://www.w3.org/2000/svg">
<g clip-path="url(#clip0_48_2242)">
<path d="M18.3017 10.7292C18.141 12.629 17.3356 14.4168 16.0191 15.796C14.7027 17.1752 12.9542 18.0628 11.0639 18.3116C9.17353 18.5604 7.25495 18.1555 5.62642 17.1639C3.99788 16.1724 2.7573 14.6539 2.11047 12.8603C1.46365 11.0667 1.44947 9.10592 2.07029 7.30319C2.69111 5.50046 3.90961 3.96416 5.52364 2.94917C7.13766 1.93419 9.05019 1.50153 10.9439 1.72298C12.8377 1.94443 14.5988 2.80668 15.9351 4.16667H13.3334C13.1124 4.16667 12.9004 4.25446 12.7441 4.41074C12.5879 4.56703 12.5001 4.77899 12.5001 5C12.5001 5.22101 12.5879 5.43298 12.7441 5.58926C12.9004 5.74554 13.1124 5.83333 13.3334 5.83333H16.7859C17.1962 5.83311 17.5897 5.67 17.8799 5.37984C18.1701 5.08967 18.3332 4.69619 18.3334 4.28583V0.833333C18.3334 0.61232 18.2456 0.400358 18.0893 0.244078C17.933 0.0877974 17.7211 0 17.5001 0C17.279 0 17.0671 0.0877974 16.9108 0.244078C16.7545 0.400358 16.6667 0.61232 16.6667 0.833333V2.565C14.9906 1.06727 12.8583 0.178736 10.6146 0.0430927C8.37094 -0.092551 6.1471 0.532631 4.30277 1.81753C2.45844 3.10242 1.10147 4.9719 0.451319 7.1236C-0.198831 9.27529 -0.104141 11.5834 0.720075 13.6746C1.54429 15.7658 3.04984 17.5179 4.99322 18.6474C6.9366 19.7769 9.20417 20.2178 11.4292 19.8988C13.6542 19.5798 15.7066 18.5196 17.2544 16.8896C18.8022 15.2597 19.7549 13.1552 19.9584 10.9167C19.9692 10.8006 19.9556 10.6836 19.9187 10.5731C19.8817 10.4625 19.8221 10.3609 19.7437 10.2747C19.6653 10.1884 19.5699 10.1195 19.4633 10.0722C19.3568 10.0249 19.2416 10.0003 19.1251 10C18.9218 9.99755 18.7248 10.0709 18.5726 10.2057C18.4204 10.3404 18.3239 10.5271 18.3017 10.7292Z" fill="white"/>
</g>
<defs>
<clipPath id="clip0_48_2242">
<rect width="20" height="20" fill="white"/>
</clipPath>
</defs>
</svg>
