<svg width="20" height="20" viewBox="0 0 20 20" fill="none" xmlns="http://www.w3.org/2000/svg">
<g clip-path="url(#clip0_48_1841)">
<path d="M16.6666 3.3767C14.7157 1.65498 12.1705 0.761501 9.57145 0.88597C6.97241 1.01044 4.52423 2.14305 2.74674 4.04332C0.969253 5.94359 0.00244069 8.46186 0.0515909 11.0634C0.100741 13.665 1.16198 16.1449 3.00998 17.9767C3.79032 18.7419 4.8404 19.1694 5.93332 19.1667H14.0725C15.1074 19.1808 16.108 18.7965 16.8675 18.0934C17.8666 17.1395 18.6582 15.9899 19.1929 14.7163C19.7276 13.4426 19.9938 12.0724 19.975 10.6913C19.9561 9.31008 19.6526 7.94763 19.0834 6.68907C18.5141 5.43052 17.6914 4.3029 16.6666 3.3767ZM15.7233 16.8825C15.2721 17.2916 14.6814 17.5125 14.0725 17.5H5.93332C5.276 17.5021 4.64431 17.2453 4.17498 16.785C2.98623 15.6231 2.17213 14.1322 1.83732 12.504C1.50252 10.8758 1.6623 9.18469 2.29614 7.64801C2.92998 6.11132 4.00891 4.79931 5.39425 3.88061C6.77958 2.96191 8.40801 2.47851 10.0702 2.49254C11.7324 2.50657 13.3525 3.0174 14.7221 3.95936C16.0917 4.90132 17.1484 6.23136 17.7562 7.77853C18.364 9.3257 18.4952 11.0193 18.1329 12.6416C17.7707 14.2639 16.9315 15.7409 15.7233 16.8825ZM16.6666 10.8334C16.6692 11.7213 16.4928 12.6006 16.148 13.4189C15.8033 14.2371 15.2972 14.9775 14.66 15.5959C14.502 15.7506 14.2889 15.8362 14.0678 15.8338C13.8467 15.8315 13.6355 15.7414 13.4808 15.5834C13.3261 15.4253 13.2405 15.2123 13.2429 14.9912C13.2452 14.7701 13.3353 14.5589 13.4933 14.4042C16.9441 11.1075 13.9933 5.15836 9.28498 5.88503C9.17659 5.90068 9.06617 5.89482 8.96004 5.8678C8.85391 5.84078 8.75413 5.79312 8.66642 5.72753C8.48928 5.59509 8.372 5.39769 8.3404 5.17878C8.32475 5.07038 8.3306 4.95997 8.35763 4.85384C8.38465 4.7477 8.43231 4.64793 8.4979 4.56022C8.56348 4.47251 8.64569 4.39857 8.73985 4.34263C8.834 4.28669 8.93825 4.24985 9.04665 4.2342C9.99236 4.10116 10.9556 4.17219 11.8716 4.44252C12.7875 4.71286 13.635 5.17621 14.3569 5.80143C15.0789 6.42664 15.6585 7.19921 16.0569 8.06717C16.4553 8.93513 16.6632 9.87834 16.6666 10.8334ZM6.50498 14.4034C6.66323 14.5581 6.75354 14.7693 6.75604 14.9906C6.75854 15.2119 6.67303 15.4251 6.51832 15.5834C6.36361 15.7416 6.15237 15.8319 5.93108 15.8344C5.70978 15.8369 5.49656 15.7514 5.33832 15.5967C4.58678 14.8647 4.01927 13.9652 3.68222 12.9717C3.34517 11.9782 3.24817 10.919 3.39915 9.88086C3.4148 9.77247 3.45164 9.66822 3.50758 9.57406C3.56352 9.47991 3.63746 9.39769 3.72517 9.33211C3.81288 9.26653 3.91266 9.21886 4.01879 9.19184C4.12492 9.16482 4.23534 9.15896 4.34373 9.17461C4.45213 9.19026 4.55638 9.22711 4.65053 9.28305C4.74469 9.33899 4.82691 9.41292 4.89249 9.50064C4.95807 9.58835 5.00573 9.68812 5.03275 9.79425C5.05978 9.90038 5.06563 10.0108 5.04998 10.1192C4.93633 10.8975 5.00896 11.6916 5.26189 12.4364C5.51483 13.1811 5.94086 13.8553 6.50498 14.4034ZM11.6666 10.8334C11.6665 11.0706 11.6158 11.305 11.5178 11.521C11.4199 11.737 11.2769 11.9296 11.0986 12.086C10.9202 12.2423 10.7105 12.3588 10.4835 12.4276C10.2565 12.4964 10.0175 12.516 9.7823 12.485C9.54714 12.454 9.3213 12.3732 9.11988 12.2479C8.91846 12.1227 8.74609 11.9559 8.61429 11.7587C8.4825 11.5615 8.39431 11.3384 8.35563 11.1044C8.31695 10.8704 8.32866 10.6308 8.38998 10.4017L5.24415 7.25586C5.09235 7.09869 5.00836 6.88819 5.01025 6.6697C5.01215 6.4512 5.09979 6.24219 5.2543 6.08768C5.40881 5.93317 5.61782 5.84553 5.83631 5.84363C6.05481 5.84174 6.26531 5.92573 6.42248 6.07753L9.56832 9.22336C9.8152 9.15853 10.0736 9.15104 10.3239 9.20145C10.5741 9.25187 10.8094 9.35886 11.012 9.51424C11.2145 9.66962 11.3787 9.86927 11.4922 10.0979C11.6057 10.3265 11.6654 10.5781 11.6666 10.8334Z" fill="white"/>
</g>
<defs>
<clipPath id="clip0_48_1841">
<rect width="20" height="20" fill="white"/>
</clipPath>
</defs>
</svg>
