<svg width="20" height="20" viewBox="0 0 20 20" fill="none" xmlns="http://www.w3.org/2000/svg">
<g clip-path="url(#clip0_120_1257)">
<path d="M10.0001 11.6667C9.55805 11.6667 9.13413 11.4911 8.82157 11.1785C8.50901 10.866 8.33342 10.442 8.33342 10C8.33342 9.85168 8.35925 9.71084 8.39508 9.57334L5.24425 6.42251C5.16688 6.34514 5.1055 6.25329 5.06363 6.1522C5.02176 6.05111 5.00021 5.94276 5.00021 5.83334C5.00021 5.72392 5.02176 5.61558 5.06363 5.51449C5.1055 5.4134 5.16688 5.32155 5.24425 5.24418C5.32162 5.16681 5.41347 5.10543 5.51456 5.06356C5.61565 5.02169 5.724 5.00014 5.83341 5.00014C5.94283 5.00014 6.05118 5.02169 6.15227 5.06356C6.25336 5.10543 6.34521 5.16681 6.42258 5.24418L9.57341 8.39501C9.71008 8.35834 9.85175 8.33334 10.0001 8.33334C10.4421 8.33334 10.866 8.50894 11.1786 8.8215C11.4912 9.13406 11.6667 9.55798 11.6667 10C11.6667 10.442 11.4912 10.866 11.1786 11.1785C10.866 11.4911 10.4421 11.6667 10.0001 11.6667ZM16.6634 2.54334C15.6081 1.60389 14.3666 0.897523 13.0199 0.470339C11.6731 0.0431545 10.2514 -0.0952435 8.84758 0.0641767C4.34008 0.570843 0.654248 4.20084 0.0825812 8.69751C-0.314919 11.8292 0.735081 14.8908 2.96258 17.0967C3.44258 17.5717 4.07841 17.8117 4.71591 17.8117C5.31805 17.8127 5.90045 17.5971 6.35675 17.2042L7.21175 16.4642C7.37299 16.3178 7.47062 16.1142 7.48377 15.8969C7.49692 15.6795 7.42456 15.4656 7.28214 15.3009C7.13972 15.1362 6.93854 15.0337 6.72156 15.0153C6.50459 14.9969 6.28902 15.0641 6.12091 15.2025L5.26591 15.9433C5.10759 16.0804 4.90367 16.1532 4.69434 16.1473C4.48502 16.1414 4.28549 16.0574 4.13508 15.9117C2.27841 14.0733 1.40425 11.52 1.73591 8.90751C2.21175 5.16418 5.28008 2.14168 9.03258 1.72084C11.4459 1.44584 13.7601 2.18334 15.5517 3.78584C16.7667 4.87265 17.6368 6.29155 18.0544 7.86729C18.472 9.44304 18.419 11.1066 17.9017 12.6525C17.867 12.7563 17.853 12.8658 17.8606 12.975C17.8682 13.0841 17.8973 13.1907 17.946 13.2886C17.9948 13.3865 18.0624 13.4739 18.145 13.5457C18.2275 13.6175 18.3234 13.6723 18.4272 13.7071C18.5309 13.7418 18.6405 13.7558 18.7496 13.7482C18.8588 13.7406 18.9653 13.7116 19.0633 13.6628C19.1612 13.614 19.2486 13.5464 19.3204 13.4639C19.3922 13.3813 19.447 13.2854 19.4817 13.1817C20.1018 11.3269 20.1652 9.33117 19.6641 7.4408C19.163 5.55042 18.1192 3.84817 16.6617 2.54418L16.6634 2.54334ZM19.1209 18.0475C19.236 18.2448 19.297 18.469 19.2978 18.6974C19.2985 18.9258 19.239 19.1504 19.1252 19.3484C19.0114 19.5465 18.8474 19.711 18.6497 19.8254C18.452 19.9398 18.2277 20 17.9992 20H10.3342C10.1058 20 9.88146 19.9398 9.68377 19.8254C9.48607 19.711 9.32206 19.5465 9.20828 19.3484C9.0945 19.1504 9.03499 18.9258 9.03574 18.6974C9.0365 18.469 9.0975 18.2448 9.21258 18.0475L13.0451 11.4775C13.1594 11.2814 13.3231 11.1187 13.5199 11.0056C13.7167 10.8925 13.9398 10.833 14.1667 10.833C14.3937 10.833 14.6168 10.8925 14.8136 11.0056C15.0104 11.1187 15.1741 11.2814 15.2884 11.4775L19.1209 18.0475ZM15.0001 18.3333C15.0001 18.1123 14.9123 17.9004 14.756 17.7441C14.5997 17.5878 14.3878 17.5 14.1667 17.5C13.9457 17.5 13.7338 17.5878 13.5775 17.7441C13.4212 17.9004 13.3334 18.1123 13.3334 18.3333C13.3334 18.5544 13.4212 18.7663 13.5775 18.9226C13.7338 19.0789 13.9457 19.1667 14.1667 19.1667C14.3878 19.1667 14.5997 19.0789 14.756 18.9226C14.9123 18.7663 15.0001 18.5544 15.0001 18.3333ZM15.0001 14.1667C15.0001 13.9457 14.9123 13.7337 14.756 13.5774C14.5997 13.4211 14.3878 13.3333 14.1667 13.3333C13.9457 13.3333 13.7338 13.4211 13.5775 13.5774C13.4212 13.7337 13.3334 13.9457 13.3334 14.1667V15.8333C13.3334 16.0544 13.4212 16.2663 13.5775 16.4226C13.7338 16.5789 13.9457 16.6667 14.1667 16.6667C14.3878 16.6667 14.5997 16.5789 14.756 16.4226C14.9123 16.2663 15.0001 16.0544 15.0001 15.8333V14.1667Z" fill="white"/>
</g>
<defs>
<clipPath id="clip0_120_1257">
<rect width="20" height="20" fill="white"/>
</clipPath>
</defs>
</svg>
