<svg width="20" height="20" viewBox="0 0 20 20" fill="none" xmlns="http://www.w3.org/2000/svg">
<g clip-path="url(#clip0_48_2188)">
<path d="M17.2833 8.59317L13.7 3.45067C13.316 2.89965 12.8044 2.44964 12.2089 2.13899C11.6134 1.82833 10.9517 1.66623 10.28 1.6665H7.08333C6.23835 1.66937 5.41401 1.92784 4.71868 2.40796C4.02335 2.88808 3.48956 3.56735 3.1875 4.3565L1.46083 8.90984C1.01095 9.21531 0.64263 9.62622 0.388002 10.1067C0.133373 10.5872 0.000166984 11.1227 0 11.6665L0 12.9165C0.000684041 13.3966 0.166811 13.8617 0.470393 14.2336C0.773975 14.6055 1.19646 14.8614 1.66667 14.9582V15.4165C1.66667 16.1901 1.97396 16.9319 2.52094 17.4789C3.06792 18.0259 3.80979 18.3332 4.58333 18.3332C5.35688 18.3332 6.09875 18.0259 6.64573 17.4789C7.19271 16.9319 7.5 16.1901 7.5 15.4165V14.9998H12.5V15.4165C12.5 16.1901 12.8073 16.9319 13.3543 17.4789C13.9013 18.0259 14.6431 18.3332 15.4167 18.3332C16.1902 18.3332 16.9321 18.0259 17.4791 17.4789C18.026 16.9319 18.3333 16.1901 18.3333 15.4165V14.9582C18.8035 14.8614 19.226 14.6055 19.5296 14.2336C19.8332 13.8617 19.9993 13.3966 20 12.9165V12.4998C19.9988 11.6495 19.738 10.8198 19.2526 10.1217C18.7671 9.42358 18.0801 8.8903 17.2833 8.59317ZM12.3333 4.40317L15.07 8.33317H9.16667V3.33317H10.28C10.6832 3.33274 11.0805 3.42982 11.438 3.61613C11.7955 3.80245 12.1027 4.07247 12.3333 4.40317ZM4.75 4.94734C4.93092 4.47445 5.25053 4.06728 5.66691 3.77923C6.0833 3.49118 6.57703 3.33569 7.08333 3.33317H7.5V8.33317H3.46167L4.75 4.94734ZM5.83333 15.4165C5.83333 15.748 5.70164 16.066 5.46722 16.3004C5.2328 16.5348 4.91485 16.6665 4.58333 16.6665C4.25181 16.6665 3.93387 16.5348 3.69945 16.3004C3.46503 16.066 3.33333 15.748 3.33333 15.4165V14.9998H5.83333V15.4165ZM15.4167 16.6665C15.0851 16.6665 14.7672 16.5348 14.5328 16.3004C14.2984 16.066 14.1667 15.748 14.1667 15.4165V14.9998H16.6667V15.4165C16.6667 15.748 16.535 16.066 16.3005 16.3004C16.0661 16.5348 15.7482 16.6665 15.4167 16.6665ZM18.3333 12.9165C18.3333 13.027 18.2894 13.133 18.2113 13.2111C18.1332 13.2893 18.0272 13.3332 17.9167 13.3332H2.08333C1.97283 13.3332 1.86685 13.2893 1.78871 13.2111C1.71057 13.133 1.66667 13.027 1.66667 12.9165V11.6665C1.66667 11.2245 1.84226 10.8006 2.15482 10.488C2.46738 10.1754 2.89131 9.99984 3.33333 9.99984H15.8333C16.4964 9.99984 17.1323 10.2632 17.6011 10.7321C18.0699 11.2009 18.3333 11.8368 18.3333 12.4998V12.9165Z" fill="white"/>
</g>
<defs>
<clipPath id="clip0_48_2188">
<rect width="20" height="20" fill="white"/>
</clipPath>
</defs>
</svg>
