<svg width="20" height="20" viewBox="0 0 20 20" fill="none" xmlns="http://www.w3.org/2000/svg">
<path d="M2.31527 12.9275C2.07408 13.0302 1.87898 13.2179 1.76699 13.4549C1.65501 13.6919 1.63393 13.9618 1.70777 14.2133C1.73568 14.3192 1.74247 14.4294 1.72776 14.5379C1.71305 14.6463 1.67712 14.7508 1.62202 14.8454C1.56692 14.94 1.49374 15.0227 1.40665 15.089C1.31956 15.1553 1.22026 15.2038 1.11443 15.2317C1.04477 15.2498 0.973088 15.2591 0.9011 15.2592C0.717226 15.259 0.538571 15.198 0.392967 15.0857C0.247364 14.9734 0.142988 14.8161 0.0961003 14.6383C-0.0793924 14.0004 -0.0179024 13.3205 0.269195 12.7244C0.556292 12.1283 1.04957 11.6563 1.65777 11.3958C1.51053 10.7245 1.52166 10.028 1.69027 9.36167C1.84841 8.70596 2.14846 8.09292 2.56927 7.56577C2.99008 7.03863 3.52141 6.61021 4.12579 6.31072C4.73016 6.01123 5.39288 5.84797 6.06721 5.83244C6.74155 5.81691 7.41108 5.94949 8.0286 6.22083C8.22433 6.31356 8.37626 6.47885 8.45221 6.68168C8.52817 6.8845 8.52217 7.10893 8.4355 7.30741C8.34882 7.50589 8.18828 7.66283 7.98789 7.74498C7.78749 7.82713 7.56298 7.82803 7.36193 7.7475C6.84463 7.52291 6.2745 7.44869 5.71693 7.53333C5.31981 7.59926 4.94013 7.74487 4.60077 7.9614C4.2614 8.17793 3.96937 8.46091 3.74226 8.79329C3.51515 9.12566 3.35765 9.50056 3.27926 9.89542C3.20086 10.2903 3.20319 10.6969 3.2861 11.0908C3.36186 11.462 3.30649 11.848 3.12945 12.1829C2.95241 12.5179 2.66465 12.781 2.31527 12.9275ZM16.5653 17.0108C16.4014 17.7102 16.045 18.3498 15.5365 18.8571C15.0279 19.3645 14.3875 19.7194 13.6878 19.8817C13.4164 19.9437 13.1394 19.978 12.8611 19.9842C11.7103 20.0067 6.3611 20.0142 5.16443 19.9842C4.94461 19.9777 4.72624 19.9461 4.5136 19.89C3.96595 19.7398 3.47855 19.4231 3.11893 18.9836C2.75931 18.5441 2.54526 18.0036 2.50644 17.4371C2.46762 16.8706 2.60595 16.306 2.90227 15.8215C3.19858 15.3371 3.63822 14.9568 4.16027 14.7333C4.01303 14.062 4.02416 13.3655 4.19277 12.6992C4.42354 11.7502 4.94887 10.8988 5.69343 10.2668C6.43798 9.6349 7.36352 9.25495 8.33733 9.18148C9.31114 9.10801 10.2832 9.34479 11.1142 9.85786C11.9451 10.3709 12.5922 11.1339 12.9628 12.0375C13.0278 12.1933 13.3019 12.2567 13.5769 12.3067C13.6669 12.3233 13.7436 12.3383 13.8003 12.3533C14.7745 12.6192 15.6073 13.2533 16.1228 14.1217C16.6382 14.9902 16.796 16.0249 16.5628 17.0075L16.5653 17.0108ZM13.3703 13.9633C12.9647 13.927 12.5745 13.7905 12.2347 13.5661C11.8949 13.3416 11.6162 13.0363 11.4236 12.6775C11.1672 12.0615 10.7125 11.5489 10.1316 11.2208C9.55065 10.8927 8.87678 10.7681 8.21693 10.8667C7.81981 10.9326 7.44013 11.0782 7.10077 11.2947C6.7614 11.5113 6.46937 11.7942 6.24226 12.1266C6.01515 12.459 5.85765 12.8339 5.77926 13.2288C5.70086 13.6236 5.70319 14.0302 5.7861 14.4242C5.86102 14.7949 5.80524 15.1801 5.62825 15.5143C5.45126 15.8485 5.16399 16.1111 4.81527 16.2575C4.57408 16.3602 4.37898 16.5479 4.26699 16.7849C4.15501 17.0219 4.13393 17.2918 4.20777 17.5433C4.25627 17.7168 4.3486 17.8748 4.47587 18.0022C4.60313 18.1296 4.76106 18.2221 4.93443 18.2708C5.02379 18.2942 5.11546 18.3076 5.20777 18.3108C6.2186 18.3383 11.6003 18.3342 12.8278 18.3108C12.9916 18.3072 13.1547 18.2868 13.3144 18.25C13.708 18.1558 14.0679 17.9548 14.3545 17.6691C14.6411 17.3834 14.8432 17.0241 14.9386 16.6308C15.0733 16.0689 14.9849 15.4766 14.692 14.9785C14.399 14.4804 13.9244 14.1153 13.3678 13.96L13.3703 13.9633ZM19.1669 7.5H17.0161C17.0062 7.41339 16.9928 7.32721 16.9761 7.24167C16.9146 6.93114 16.8242 6.62704 16.7061 6.33333L18.5603 5.23917C18.6557 5.18413 18.7393 5.11072 18.8061 5.02318C18.873 4.93565 18.9219 4.83572 18.9499 4.72918C18.9779 4.62264 18.9845 4.5116 18.9693 4.4025C18.9541 4.29339 18.9175 4.18837 18.8615 4.09352C18.8055 3.99866 18.7312 3.91586 18.643 3.84989C18.5547 3.78393 18.4543 3.7361 18.3475 3.7092C18.2407 3.68229 18.1296 3.67683 18.0206 3.69313C17.9117 3.70943 17.807 3.74717 17.7128 3.80417L15.8461 4.90667C15.6098 4.62758 15.3466 4.37246 15.0603 4.145L16.1436 2.26C16.1992 2.16519 16.2355 2.06032 16.2503 1.95144C16.2652 1.84255 16.2584 1.73179 16.2304 1.62554C16.2023 1.5193 16.1534 1.41965 16.0867 1.33235C16.0199 1.24505 15.9365 1.17181 15.8414 1.11686C15.7462 1.06191 15.6411 1.02633 15.5321 1.01216C15.4231 0.997999 15.3124 1.00553 15.2064 1.03433C15.1003 1.06312 15.001 1.11261 14.9141 1.17994C14.8273 1.24728 14.7546 1.33113 14.7003 1.42667L13.6169 3.30833C13.2563 3.16733 12.8821 3.064 12.5003 3V0.833333C12.5003 0.61232 12.4125 0.400358 12.2562 0.244078C12.0999 0.0877974 11.8879 0 11.6669 0C11.4459 0 11.234 0.0877974 11.0777 0.244078C10.9214 0.400358 10.8336 0.61232 10.8336 0.833333V2.97L10.7936 2.97583C10.4341 3.02602 10.0823 3.12063 9.7461 3.2575L8.56693 1.42417C8.44125 1.25415 8.25564 1.13827 8.04771 1.09999C7.83978 1.06171 7.62507 1.10389 7.44708 1.21799C7.26909 1.3321 7.14113 1.50959 7.08911 1.71452C7.03709 1.91945 7.06491 2.13649 7.16693 2.32167L8.43943 4.30333C8.62898 4.60108 8.92014 4.81993 9.25884 4.91924C9.59755 5.01855 9.96078 4.99158 10.2811 4.84333C10.5202 4.73358 10.7744 4.66026 11.0353 4.62583C11.9917 4.4808 12.9675 4.7032 13.7666 5.2483C14.5657 5.7934 15.1288 6.6208 15.3428 7.56417C15.425 8.31778 15.3417 9.08027 15.0986 9.79833C14.9805 10.1431 14.9853 10.5182 15.1123 10.8598C15.2393 11.2014 15.4806 11.4886 15.7953 11.6725L17.7603 12.8067C17.9518 12.9172 18.1793 12.9471 18.3929 12.8898C18.6065 12.8325 18.7885 12.6928 18.899 12.5013C19.0095 12.3097 19.0394 12.0822 18.9822 11.8686C18.9249 11.6551 18.7851 11.473 18.5936 11.3625L16.6986 10.2692C16.8134 9.90898 16.8997 9.54035 16.9569 9.16667H19.1669C19.3879 9.16667 19.5999 9.07887 19.7562 8.92259C19.9125 8.76631 20.0003 8.55435 20.0003 8.33333C20.0003 8.11232 19.9125 7.90036 19.7562 7.74408C19.5999 7.5878 19.3879 7.5 19.1669 7.5Z" fill="white"/>
</svg>
